<svg xmlns="http://www.w3.org/2000/svg" width="600" height="376" viewBox="0 0 600 376"><title>FOX</title><path d="M510,278.3H452.57c-.53,0-1.49-2.32-1.77-2.8-7.9-14.26-15.79-28.59-23.65-42.83-8.4,15.16-16.58,30.56-25,45.74-18.8,0-37.45-.09-56.09,0,2.11-3.95,4.36-7.81,6.61-11.69,15.68-27.1,31.14-54.56,46.84-81.68-16.69-29.16-33.64-58.09-50.42-87.19-.05,0-.16-.18-.05-.16h57.7c7.1,12.91,14,26,21,39,7.26-12.88,14.26-26,21.45-39H505a1,1,0,0,1-.23.67c-16.28,28.61-32.95,57.31-49.2,86C473.63,215.66,492,247,510,278.3Z" style="fill:#002885"/><path d="M370.57,167.76a81.57,81.57,0,0,1,2.32,19.45c0,21.56-6.24,37.54-14.92,50.54-1.47,2.2-3,4.31-4.57,6.33A81.72,81.72,0,0,1,336.63,260a87.65,87.65,0,0,1-13.66,8.1,82.63,82.63,0,0,1-35.38,8.23c-21.4,0-37.2-6.53-50-15.48a86.53,86.53,0,0,1-29.53-35.82,90.17,90.17,0,0,1-7.88-35.71,89.56,89.56,0,0,1,19.5-56.88A86,86,0,0,1,250,108.38a82.6,82.6,0,0,1,35.37-8.22h.11a77.84,77.84,0,0,1,19.79,2,84.15,84.15,0,0,1,16.31,5.51c15.15,6.84,26.45,17.08,35.54,29.87A87.53,87.53,0,0,1,370.57,167.76ZM301.69,227.6c.55-2.21.39-5,.39-7.95V153.29a18.47,18.47,0,0,0-1.15-7.12,15.47,15.47,0,0,0-3.31-5,14.9,14.9,0,0,0-11.8-4.8,13.35,13.35,0,0,0-6.29,2.09,15.49,15.49,0,0,0-6.89,9.64,35.74,35.74,0,0,0-.51,7.83v66.36a29,29,0,0,0,.12,4,14.66,14.66,0,0,0,4.09,8.38,14.35,14.35,0,0,0,12,4.36A15,15,0,0,0,301.69,227.6Z" style="fill:#002885"/><path d="M202.54,146.93h-61c-.25,7.58,0,16-.11,23.58,16.49.14,33.23,0,49.83.05V220c-16.72,0-33.57-.07-50.2,0,0,19.61.12,38.85.12,58.46a.15.15,0,0,1,0,.12H90.25c-.09,0-.09-.05-.16-.05-.12-60.2-.12-120.8,0-181,0-.07,0-.16,0-.16h109c.07,0,.09,0,.11,0Q200.91,122.16,202.54,146.93Z" style="fill:#002885"/></svg>