<svg xmlns="http://www.w3.org/2000/svg" width="600" height="376" viewBox="0 0 600 376"><title>NFL</title><path d="M312.29,27.45A90.89,90.89,0,0,1,300,8.94a90.89,90.89,0,0,1-12.29,18.51c-31,35.87-72.61,47.9-119.28,5.81V277.88c.5,27.78,21.61,37.17,41.11,44.49l15.25,4.32c22.87,3,45.07,8.63,75.21,40.37,30.14-31.74,52.34-37.41,75.21-40.37l15.25-4.32c19.5-7.32,40.61-16.71,41.11-44.49V33.26C384.9,75.35,343.25,63.32,312.29,27.45Z" style="fill:#fff"/><path d="M312.48,43A82.53,82.53,0,0,1,301,25.77,81.76,81.76,0,0,1,289.42,43c-28.35,32.44-76.26,36.71-109.24,10.6V269.45c.46,25.12,19.8,33.61,37.65,40.23l14,3.91c21,2.68,41.35,7.82,69,36.65l.12-.17.12.17c27.68-28.83,48.06-34,69-36.65l14-3.91c17.86-6.62,37.19-15.11,37.66-40.23V53.61C388.75,79.72,340.84,75.45,312.48,43Z" style="fill:#1d3767"/><path d="M330.54,67.71S293.39,62.3,275.6,91c-17.57,28.35-5.17,54.13-5.17,54.13s37.31,6.27,57.12-24.25C344,95.55,330.54,67.71,330.54,67.71Z" style="fill:#fff"/><path d="M290.67,89.49,307.31,98c.63-.68,1.27-1.34,1.92-2l-16.68-8.53C291.92,88.13,291.29,88.8,290.67,89.49Z" style="fill:#1d3767"/><path d="M285.06,96.61l16.21,8.29c.63-.78,1.27-1.55,1.93-2.32l-16.41-8.39C286.2,95,285.62,95.79,285.06,96.61Z" style="fill:#1d3767"/><path d="M280.69,104l15.64,8c.44-.77.91-1.53,1.38-2.26l-15.77-8.07C281.51,102.47,281.09,103.25,280.69,104Z" style="fill:#1d3767"/><path d="M307.19,75.35q-1.21.83-2.46,1.71l16.06,8.22,2.2-1.85Z" style="fill:#1d3767"/><path d="M297.11,83.12l16.6,8.49q1.14-1.08,2.28-2.1l-16.5-8.44C298.7,81.73,297.9,82.42,297.11,83.12Z" style="fill:#1d3767"/><path d="M315.53,81a217,217,0,0,1,17.24-13.63l-1.42-1s-8.57,3-19.92,12.48Z" style="fill:#1d3767"/><path d="M287.82,106c-11.54,18.4-18.68,39.6-18.68,39.6l1.69,1s8.91-21.74,20.36-38.94Z" style="fill:#1d3767"/><polygon points="395.22 80.32 399.24 91.75 411.92 91.75 401.8 99.81 405.66 112.14 395.22 104.17 384.78 111.66 388.8 99.73 379.01 91.75 391.21 91.75 395.22 80.32" style="fill:#fff"/><polygon points="395.22 117.7 399.24 129.14 411.92 129.14 401.8 137.19 405.66 149.52 395.22 141.55 384.78 149.04 388.8 137.12 379.01 129.14 391.21 129.14 395.22 117.7" style="fill:#fff"/><polygon points="355.08 117.7 359.1 129.14 371.77 129.14 361.66 137.19 365.52 149.52 355.08 141.55 344.65 149.04 348.66 137.12 338.87 129.14 351.07 129.14 355.08 117.7" style="fill:#fff"/><polygon points="354.76 80.32 358.77 91.75 371.46 91.75 361.35 99.81 365.19 112.14 354.76 104.17 344.33 111.66 348.34 99.73 338.55 91.75 350.75 91.75 354.76 80.32" style="fill:#fff"/><polygon points="246.66 80.32 250.68 91.75 263.36 91.75 253.25 99.81 257.1 112.14 246.66 104.17 236.23 111.66 240.24 99.73 230.45 91.75 242.66 91.75 246.66 80.32" style="fill:#fff"/><polygon points="246.66 117.7 250.68 129.14 263.36 129.14 253.25 137.19 257.1 149.52 246.66 141.55 236.23 149.04 240.24 137.12 230.45 129.14 242.66 129.14 246.66 117.7" style="fill:#fff"/><polygon points="206.52 117.7 210.54 129.14 223.22 129.14 213.1 137.19 216.97 149.52 206.52 141.55 196.09 149.04 200.1 137.12 190.31 129.14 202.51 129.14 206.52 117.7" style="fill:#fff"/><polygon points="206.2 80.32 210.22 91.75 222.91 91.75 212.79 99.81 216.64 112.14 206.2 104.17 195.77 111.66 199.78 99.73 189.99 91.75 202.19 91.75 206.2 80.32" style="fill:#fff"/><path d="M192.14,157.87V261.53c.42,23.07,17.84,30.87,33.93,37l12.58,3.59c18.9,2.46,37.26,7.18,62.2,33.66l.11-.15.1.15c24.94-26.48,43.3-31.2,62.2-33.66l12.58-3.59c16.09-6.08,33.51-13.88,33.93-37V157.87Z" style="fill:#fff"/><path d="M307.4,171.59H281.28V188h6.88v95c-4.23-.49-7.86-.75-7.86-.75V297.1A103.62,103.62,0,0,1,295.89,300c5.21,1.57,18,7.55,18,7.55V291.13a51.36,51.36,0,0,0-6.51-3.33V234.66h10.06l2.41,6.76h10.81V211H319.87l-2.58,7.26H307.4V188h12.66l4.14,9.64h13V171.59Z" style="fill:#b42025"/><path d="M268.92,171.59H244.08V188h5.6v40.11l-20.09-57.46v0H204.87V187h5.48v72.25c-4.42-.22-8.27-.23-8.27-.23l1.34,16.71a92.91,92.91,0,0,1,15.8,2c5.33,1.35,18.64,7.05,18.64,7.05l-1.48-18.49a50.23,50.23,0,0,0-6.79-3.22V229l20.81,59.51,18.52,5.73V188h5.36V171.59Z" style="fill:#b42025"/><path d="M383.47,239.58v23.35c-5.07,1.13-10.59,2.44-15.19,3.74V188l5.6-2.56V171.59H343.44v13.88L349,188v86.31c-3.27,1.7-6.05,3.34-8.28,4.76v18.76c6.09-3.51,21.22-12.1,28.58-15.06a117.14,117.14,0,0,1,29.32-7v-36.2Z" style="fill:#b42025"/></svg>