<svg xmlns="http://www.w3.org/2000/svg" width="600" height="376" viewBox="0 0 600 376"><title>Discovery</title><path d="M96.57,136.2a9.78,9.78,0,1,0,9.68-9.78,9.78,9.78,0,0,0-9.68,9.78m20.22,18.87H95.91v68.28h20.88Zm438.67,94.51,42-94.51H575.38l-15.11,36.54-16.62-36.54H520.3L549,214.13l-15.51,35.45Zm-38.05-94.51a20.21,20.21,0,0,0-5.5-.69c-5.48,0-14.15,2.2-17.71,9.89v-9.2H474v68.28h20.9V193.54c0-13.61,7.55-18.55,15.93-18.55a28.17,28.17,0,0,1,6.59.68Zm-98.78,26c.41-5.09,4.81-11.54,13.6-11.54,9.9,0,13.47,6.32,13.75,11.54Zm28.85,17.72c-1.92,5.36-6.18,8.92-13.73,8.92-8.11,0-15.12-5.48-15.53-13.17h47.54a43.53,43.53,0,0,0,.41-6.46c0-22-13.06-35-34.22-35-17.72,0-34.07,14-34.07,36,0,22.94,16.76,36.4,35.6,36.4,17.31,0,28.16-9.89,31.46-21.7Zm-47-43.68h-22l-14.56,42.44-15.81-42.44H325.47l28,68.28h21Zm-107.85,51.1c-7.84,0-15.4-5.63-15.4-17s7.56-16.89,15.4-16.89S308,177.6,308,189.13s-7.42,17-15.39,17m0-53.17c-20.34,0-36.28,15-36.28,36.13s15.94,36.27,36.28,36.27,36.27-15.11,36.27-36.27S313.1,153,292.63,153m-72.52,19.24c8.09,0,12.23,4.95,13.73,10.16l18.69-5.63c-3-12.23-14-23.77-32.84-23.77-20.07,0-36,15-36,36.27S200,225.4,220.38,225.4c18.27,0,29.54-11.81,32.57-23.77L234.53,196c-1.51,5.09-6,10.17-14.15,10.17-8.66,0-15.95-6-15.95-16.9s7-17,15.68-17M122.85,204c.55,7.55,7.42,21.43,28.85,21.43,18.27,0,27.2-11.4,27.2-23.08,0-10-6.86-18.54-21-21.43l-9.07-1.78c-3-.56-5.36-2.19-5.36-5.08,0-3.57,3.43-5.91,7.42-5.91,6.32,0,9.2,3.84,9.75,8.38L178,173.34c-.69-8-7.56-20.34-27.34-20.34-15.26,0-26.25,10.17-26.25,22.67,0,9.61,5.77,17.87,20.34,21l7.82,1.78c5.09,1.11,6.74,3.16,6.74,5.64,0,3-2.61,5.9-8,5.9-7.13,0-10.43-4.53-10.7-9.2Z"/><path d="M30.11,178.71a1.07,1.07,0,0,0,.1.52.91.91,0,0,1,.14.3c0,.09.07.17.1.16s.08-.09-.07-.36a1.44,1.44,0,0,1-.14-.49c0-.44-.13-.54-.13-.13m-.87-12.85c-.11,0-.22,0-.23.08s0,.07.17.08.22,0,.23-.07-.05-.08-.17-.09m.11-5.15c.18,0,.15-.18-.05-.31s-.2-.14-.23,0a.35.35,0,0,0,.28.35m.66-.22a.57.57,0,0,0-.09-.25c-.06-.1-.1-.14-.1-.08s0,.08-.05.05-.07.07.07.22.15.1.17.06m4.81,4.64a.24.24,0,0,0,0-.24.23.23,0,0,1-.06-.23c0-.09,0-.11-.1-.11s-.34.26-.28.52.08.2.33.28.19,0,.15,0a.31.31,0,0,1,0-.19M30.66,177c.06-.07.09-.14.07-.16s-.08,0-.13.09-.09.14-.07.15.08,0,.13-.08m3.23-10.62a.06.06,0,0,0-.06-.07s-.09-.05-.1-.14,0-.12.09-.11a.17.17,0,0,0,.14,0s0-.08-.08-.22-.15-.16-.21-.08-.07.08-.08-.07,0-.16-.05-.16a1.39,1.39,0,0,1-.27-.28c-.13-.16-.19-.28-.16-.28s.09,0,.11-.1.07-.1.11-.07.13-.09.09-.27-.34-.24-.61,0-.35.39-.21.64a1.29,1.29,0,0,1,.12.23,1.53,1.53,0,0,0,.25.39l.25.33a2.17,2.17,0,0,0,0,.25.8.8,0,0,0,0,.38c.11.27.66.52.86.38s0-.53-.1-.61a.13.13,0,0,1,0-.12m-3.62,0s0,0,0,.08.06.08.07.08,0,0,0-.07,0-.09-.07-.09m.25-5.2a.46.46,0,0,0-.11-.16c-.08-.06-.1-.06-.08,0s.22.3.19.15m1.8,1a.2.2,0,0,0,0-.15s0,0-.08.09,0,.43.1.35,0-.07,0-.11-.06-.1,0-.18m.2,4.48s0,.06,0,.12.08.12.11.12,0-.05,0-.12a.72.72,0,0,0-.11-.12m.61-5.41s0,0,0-.08,0-.07,0-.07,0,0,0,.07a.08.08,0,0,0,0,.08m-1.05,5.25s-.06,0,0,0,.09,0,.1,0,0,0-.08,0M31,165a.7.7,0,0,1-.25-.23s0,0,.07,0,.14-.19.09-.26,0-.08.09-.13l.11-.1h-.13a.51.51,0,0,0-.22.06,1.28,1.28,0,0,1-.29.15c-.19.08-.2.1-.11.2a.27.27,0,0,0,.22.06c.09,0,.12,0,.1,0a.17.17,0,0,1-.13.08.37.37,0,0,0-.2.07c-.07.06-.12,0-.21-.08s-.12-.16,0-.23.05-.08-.09-.09-.18,0-.19-.08c0-.24-.35,0-.4.33,0,.07-.05.12-.07.08s-.24.64-.2.77.59.3.88.12a.56.56,0,0,1,.67.05,1.43,1.43,0,0,0,1,.12c.28-.37-.44-.75-.68-.92m9-5.41s0,0,0-.06a.22.22,0,0,0-.06-.07s0,0,0,.06l.06.07m-.49,4.26s0,0,0,.09,0,.1,0,0a.29.29,0,0,0-.05-.14m-.83.08s0,0,0,.07,0,.08.08.08,0,0,0-.07-.06-.08-.08-.08m8.71,14.4s0-.06,0-.05a.25.25,0,0,0,0,.07.13.13,0,0,0,0,.05.24.24,0,0,0,0-.07m-.1.22s0,0,0,.07,0,.07.05,0,0,0,0,0M47,177.11a.25.25,0,0,0,0,.08s0,0,0-.05,0-.11,0,0m0,.14,0,0s0,0,0,0,0,.05,0,0,0,0,0,0m-.14-.58c0-.06,0-.08,0,0s0,.25,0,.21a.71.71,0,0,0,0-.16m-.07-.34s0,0,0,0a.11.11,0,0,0,0,.08s0,0,0,0v-.09m-.11.22a.27.27,0,0,1-.13.16l-.07,0,0,.05s0,0,.07,0a1.3,1.3,0,0,0,.15-.34c0-.09,0,0,0,.07m-.27,3c0-.21,0-.2,0,0s0,.16,0,.15a.33.33,0,0,0,0-.17m-.1-1.92.07,0s0,0,0-.13,0-.14,0-.12,0,0,0,0a1.16,1.16,0,0,0,0-.17.34.34,0,0,1,0-.28s0-.06,0-.11a.2.2,0,0,1,0-.14c0-.11,0-.21-.18-.34s-.16-.14-.18-.17,0,0-.15.18-.13.24-.15.13a2.18,2.18,0,0,1,0-.24l0-.17c0-.07-.13,0-.2,0l-.07.09s0,0,0,0a.14.14,0,0,1,.05.11.1.1,0,0,0,.06.08s0,0,0,0-.07,0,0,.08a.18.18,0,0,1,0,.13s0,.08,0,.08a.06.06,0,0,0,0-.06s.06,0,.11,0a.37.37,0,0,0,.11.1,1,1,0,0,1,0,.41s0,.07,0,.07a.48.48,0,0,0-.06.11c0,.09,0,.09.05,0s.08,0,.1.05.16.08.19-.07a.4.4,0,0,1,.08-.16c.07-.11.11-.05.13.18s0,.16.06.17m-.8-.41c.07-.14.09-.22.06-.21s0,0,0,.05l-.05.17c0,.1,0,.1,0,0m-.18,1.43s0,0,0,.07,0,.06,0,.06,0,0,0-.07a.28.28,0,0,0,0-.06m.52-.41c0-.31,0-.38,0-.25s-.11.36-.23.76a2.79,2.79,0,0,1-.16.47c-.07.16-.13.21-.12.13a.58.58,0,0,0-.06-.17c-.11-.19-.12-.21,0-.42l.1-.21,0-.12c0-.06,0-.09-.06-.08a.16.16,0,0,1-.14-.05c-.06-.07-.1-.08-.07,0a.2.2,0,0,1-.09.2.26.26,0,0,0-.15.17.64.64,0,0,1-.07.16.38.38,0,0,0-.07.17.16.16,0,0,1-.09.12c-.05,0-.07,0-.05,0a.41.41,0,0,0,0-.12c0-.05-.12,0-.14.09s0,.06,0,.06a.87.87,0,0,0-.19.33.09.09,0,0,1-.06.08s-.06,0-.07.11,0,.09,0,.09,0,0,0-.07-.08.06-.13.21a1.7,1.7,0,0,1-.24.44,1.75,1.75,0,0,1-.28.23,2.86,2.86,0,0,0-.33.29.84.84,0,0,1-.1.12s0,0-.06.07,0,.07-.05.05-.25.52-.25.69,0,.15-.06.2-.07.12-.11.37-.07.37-.09.47a.56.56,0,0,0,0,.18,1.42,1.42,0,0,1-.19.5c-.09.07-.1.13,0,.2s.11.08.31-.12a.68.68,0,0,1,.33-.21c.12-.05.17-.08.21-.16s.23-.28.65-.56c.09-.06.16-.08.18-.06a.06.06,0,0,0,.07,0s.06.31,0,.45,0,.05.17-.2.18-.24,0,0-.13.3,0,.12.08-.06,0,.1,0,.1,0,.06.06,0,0,.19-.06.23,0,.24.06,0,.07,0,.05,0,.11-.08.09-.11.09,0,0,.08.14-.08a.82.82,0,0,1,.18-.19s.07-.06.1-.15.41-.87.51-1l.14-.29c0-.09.1-.26.14-.37a1.64,1.64,0,0,0,.11-.34c0-.07.06-.21.08-.3a1,1,0,0,0,.06-.35,1,1,0,0,1,0-.26.11.11,0,0,0,0-.1.51.51,0,0,1,0-.21.86.86,0,0,0,0-.29.44.44,0,0,1,0-.26c0-.09,0-.21,0-.26s0-.16,0-.24,0-.16,0-.19,0-.11,0-.37m0,4.35s0,0,0,0-.06,0,0,0,0-.07,0-.06,0,0,0-.13a.55.55,0,0,0,0-.21c0-.07,0,0,0,.07a.45.45,0,0,0,0,.14,1.76,1.76,0,0,1-.14.44.74.74,0,0,1-.08.15.16.16,0,0,0,0,.14.31.31,0,0,1,0,.17.44.44,0,0,0-.05.14,2.29,2.29,0,0,0,.26-.46.43.43,0,0,1,0-.1,1.45,1.45,0,0,0,.15-.29m-.51.82s0,0,0,0,0,0-.14.21a2.68,2.68,0,0,1-.28.45,4.64,4.64,0,0,0-.36.56s0,.06,0,.06.16-.12.29-.37S45,184,45,184s0,0,0,0a1.52,1.52,0,0,1,.13-.25c.12-.21.17-.33.13-.3m-1.18.58-.13.06,0,.21c-.06.25-.05.32,0,.18s.06-.09.06-.07,0,0,.08-.12c.14-.3.14-.31,0-.26m-.27-.76s0,0,0,0,0,0,.05,0,0,0,0,0m-1.26-19.62s0-.07,0-.07,0,0,0,.06a.22.22,0,0,0,.06.07s0,0,0-.06m1.23-.36a.15.15,0,0,0,0-.06s0,0,0,0a.21.21,0,0,0,0,.07s0,0,0-.06m-16-2.14c.06-.06.05-.07,0-.07s-.11,0-.1.07.05.1.14,0m-.77.28c.05,0,.09,0,.08-.07s0-.08,0-.08a.12.12,0,0,0-.09.08.05.05,0,0,0,.05.07m-1.23.55c.07,0,.19-.08.19-.19s0-.07-.16,0-.12.15,0,.2m-.2-.1s-.06,0-.05.08.06.06.08,0,.06-.12,0-.12m4.63,5.77c.08,0,.16,0,.17-.08s0-.08-.12-.08-.16,0-.17.08,0,.08.12.08m-1.68-.15a.49.49,0,0,0,.21,0c.06,0,0,0-.11,0s-.16,0-.1,0m-2.48-.63.26.14s.06-.07.07-.18,0-.2-.26-.2-.3,0-.3.06.1.12.23.18m-.9-1.18s.06-.08.06-.16,0-.21-.13-.11,0,.27.07.27m-.18.43c0,.15,0,.28,0,.28s.24-.12.25-.32,0-.3-.16-.26-.1.12-.11.3m-1.16.14s.06.06.09,0,.07-.12,0-.12-.07,0-.06.09m18,6.48.23.56a3.39,3.39,0,0,1,.24.8,2.57,2.57,0,0,0,.14.56,2.2,2.2,0,0,1,.35.63c.08.36.21.9.36.88s0,0,0-.19a2.91,2.91,0,0,1,0-.4c0-.23-.27-.57-.43-.64a.27.27,0,0,1-.11-.19,1.55,1.55,0,0,0-.14-.29c-.12-.17-.14-.23-.18-.7s0-.55.06-.33c0,.06,0,.11.07.11a.78.78,0,0,1,.24.25,1.4,1.4,0,0,0,.25.29.37.37,0,0,1,.1.21c0,.1,0,.17.07.17a.66.66,0,0,0,.08-.34s0-.08,0-.08.08-.08.1-.16a.78.78,0,0,0,0-.49,2.23,2.23,0,0,0-.48-.93c-.27-.4-.33-.56-.26-.86s.22-.33.28-.11a.68.68,0,0,0,.1.21c0,.06,0,.08,0,.08s-.09.29,0,.37.11,0,.11-.17a.4.4,0,0,0,0-.22c-.13-.18-.13-.32,0-.43s.12-.15.1-.23,0-.09,0,0,.23,0,.29-.23a1.5,1.5,0,0,0,.05-.51.36.36,0,0,0,0-.11,1.06,1.06,0,0,1,0-.26c0-.41,0-.63-.16-.65h-.06a.25.25,0,0,0,0-.07c0-.09,0-.29-.21-.61a1.85,1.85,0,0,0-.29-.45c-.07,0,0-.43,0-.48s0-.13-.09-.2-.11,0-.12,0-.09.06-.13-.08a.24.24,0,0,0-.1-.12c-.09,0-.16-.24-.09-.24s.07-.1.09-.22.07-.19.11-.16.06.07.06.18.07.28.13.17.07-.08.14,0,.1.07.13.21.08.25.16.26a.24.24,0,0,1,.14.21,2.77,2.77,0,0,0,.18.56s.05,0,.1,0,.08-.09,0-.31a1.54,1.54,0,0,0-.27-.55,1.73,1.73,0,0,1-.18-.32.57.57,0,0,0,0-.37.64.64,0,0,1,0-.25c0-.14,0-.15.11-.08s.16,0,.13-.67a2.26,2.26,0,0,0-.14-.83,2.44,2.44,0,0,1-.11-.37c-.05-.29-.41-.8-.43-.6s0,.1-.06,0-.08-.16-.06-.08,0,.08,0,0a.25.25,0,0,0-.13-.15l-.08,0s0-.06,0-.1a1.58,1.58,0,0,0,0-.25c.05-.53-.16-.63.13-.5.08,0,.15.05.15,0s.19.07.22.15a.08.08,0,0,0,.09.06h.12s0,0,0,0-.06-.09-.06-.25,0-.18.1-.15.1.05.12.12.11.17.12.08,0-.08,0,0,0,0,0-.09,0-.11,0-.11a.7.7,0,0,1,.12.46.91.91,0,0,0,0,.23.37.37,0,0,1,0,.15.92.92,0,0,0,.11.53l.25.52c.09.17.18.36.2.4s.06-.11,0-.23,0-.1,0-.12a.2.2,0,0,0,0-.14c0-.07,0-.13,0-.13s0-.05,0-.14-.08-.24,0-.17,0,0,0,0,0-.07-.05-.07a.54.54,0,0,1-.06-.13c0-.09-.06-.12-.08-.13s-.07-.07-.11-.27,0-.17,0-.16,0,0,.06,0,0,0,0,0,0,0,0,0,.06-.06.14,0,0,0,.05,0a22.76,22.76,0,0,0-1.45-2s0,0,0-.06l0,0,0-.07,0,0s0,0-.07-.09h0l-.14-.17a1,1,0,0,0-.26-.14c-.28-.14-.13-.09-.25-.24s-.34-.25-.29-.14,0,0,0,0a.32.32,0,0,0-.18-.16l-.19-.09-.11,0s0,0,0,.12.08.12,0,.07-.07,0-.06,0,0,0,0,0a1.38,1.38,0,0,0-.25-.13c-.13-.05-.18-.05-.18,0s-.08,0-.28-.18-.09-.11,0-.1,0-.11-.11-.14-.05,0,0-.05,0,0-.05-.09l-.28-.15c-.17-.08-.2-.08-.16,0s0,.09-.11.05a.94.94,0,0,1-.28-.15,1.49,1.49,0,0,0-.36-.18l-.44-.18c-.12-.07-.16-.07-.12,0s0,.07-.08.07-.25-.06-.14-.09l.15-.07.19-.08c.07,0,.07-.07,0-.2l-.07-.07-.16-.1a.64.64,0,0,0-.25-.11c-.17,0-.39-.15-.4-.21s-.27-.2-.37-.15a.11.11,0,0,0-.06.09s0,.05-.05,0-.07,0,0,0,0,0-.17,0a1.6,1.6,0,0,0-1,0l-.05.06.1.07c.06.05,0,.06-.26,0a2.62,2.62,0,0,0-.37,0c-.05,0,.15.27.27.33s.11.08.08.09-.13,0-.22-.07a2.29,2.29,0,0,0-.31-.16c-.14-.06-.14-.06,0,.06s.1.11,0,.05-.16,0,0,.1.08.07,0,0a.23.23,0,0,1-.17-.18,1.41,1.41,0,0,0-.1-.21s0,0,0,.06,0,.11,0,.11a.07.07,0,0,0-.08.05s0,.07.07.16.1.12.09.21.08.25.27.28a.38.38,0,0,1,.36.32c0,.08,0,.08,0,0a.31.31,0,0,0-.3-.22c-.06,0-.06,0,0,.16a.23.23,0,0,1,0,.28.34.34,0,0,1-.48,0c0-.05,0-.06.11,0s.15,0,.2-.14,0-.21,0-.29a1,1,0,0,1-.16-.34,1.08,1.08,0,0,0-.12-.29s-.06-.07,0-.15a.26.26,0,0,0-.2-.27c-.08,0-.1,0-.08-.07s0-.07,0-.08-.07,0-.05.06,0,.06,0,.06-.06,0-.06.12a.3.3,0,0,1-.08.21c0,.05-.06.09,0,.1a.26.26,0,0,1,.08.11c0,.06,0,.11,0,.1s0,.07.15.16c.31.27.23.32-.13.11a6.19,6.19,0,0,0-.6-.28l-.4-.14c-.08,0-.07,0,0,.07s.25.25.18.33-.07.05-.11,0-.12-.07-.36,0-.33,0-.36,0-.07-.07-.1,0a.67.67,0,0,1-.17.06c-.22,0-.46.17-.47.25s-.19.1-.31,0-.08-.18,0-.17.08-.1,0-.18-.36-.07-.29,0a.32.32,0,0,1,.06.17.29.29,0,0,0,.05.17c.11.1,0,.24-.11.18a.3.3,0,0,0-.27,0c-.18.11-.19.11-.09.26s.06.12-.12.08a1.46,1.46,0,0,1-.3-.11c-.07,0-.09,0-.09,0a.2.2,0,0,0,.11.13c.1.05.14.18.05.18a.92.92,0,0,1-.44-.3.56.56,0,0,1-.06-.21.14.14,0,0,0-.11-.15c-.24-.11-.07-.11.34,0s.44.08.56,0,.12-.14.1-.2a1.42,1.42,0,0,0-.45-.32,3.29,3.29,0,0,0-1.08-.38c-.21-.06-.24-.07-.16-.12s.1-.06,0-.13a.46.46,0,0,0-.2,0s0,0,0,0,0-.06-.08,0a.49.49,0,0,1-.16.06.28.28,0,0,0-.14.1c0,.05-.06.07-.06,0a.42.42,0,0,1,.06-.15c.05-.08,0-.09-.09,0a.51.51,0,0,0-.21.13.1.1,0,0,1-.13,0,.24.24,0,0,0-.21,0c-.07.06-.14.07-.19,0s-.17-.08-.14,0,0,.07,0,.06H27c-.08,0-.09,0,0,.08s-.06.17-.17.06-.09-.06-.07,0,0,.08-.06,0-.1,0,0,0a.12.12,0,0,0,.14,0c.17-.09.06.09-.19.27a1.26,1.26,0,0,0-.34.42c0,.12-.12.22-.15.22a.07.07,0,0,0-.07.08s0,.06,0,0-.1,0-.17.12-.15.13-.19.1-.07,0-.07.07a.1.1,0,0,1-.09.11.89.89,0,0,0-.28.13.41.41,0,0,0-.18.56c0,.08,0,.11,0,.19s-.07.1,0,.06.11,0,0,.06-.08.17.15.24a.44.44,0,0,0,.38-.11c.11-.09.21-.2.21-.24s0-.06.07,0a.4.4,0,0,1,.07.2c0,.06,0,.11,0,.11s0,0,0,.09a.51.51,0,0,0,.09.24c.05.08.09.15.07.18a.35.35,0,0,0,0,.16c.05.14.26.13.26,0s.05-.07.13-.07.31-.14.29-.39,0-.23.12-.3a.81.81,0,0,0,.21-.2c.06-.09.06-.11,0-.2a.32.32,0,0,0-.16-.11s-.06-.06-.06-.13a.65.65,0,0,1,.36-.57c.25-.15.34-.24.3-.33s.18-.29.4-.26.3.14.15.26c-.5.42-.56.47-.52.59a2.09,2.09,0,0,1,0,.28c0,.24.23.36.59.3l.42-.06c.15,0,.31.08.26.17a.67.67,0,0,1-.36.06c-.42,0-.56.06-.56.17a.19.19,0,0,0,.1.12c.07,0,.09.09.08.18s-.08.24-.21.11-.34,0-.33.38c0,.19,0,.24-.09.24s-.1,0-.1.08-.23.09-.3,0-.17,0-.41.07a.68.68,0,0,1-.42.09,1,1,0,0,0-.34-.05c-.31,0-.46-.13-.4-.3a.28.28,0,0,1,.12-.16c.09,0,.1-.07.06-.15a.2.2,0,0,1,0-.18c.06-.13-.1-.1-.19,0s-.11.09-.14.06-.05,0,0,.24c0,.56,0,.61-.11.61-.38,0-.42,0-.46.2s-.05.13-.07.06-.07,0-.18.15a.84.84,0,0,1-.32.29.33.33,0,0,0-.2.16.6.6,0,0,1-.22.24c-.15.1-.21.1-.28,0s-.1-.05-.12.08-.05.17-.15.16c-.27,0-.37,0-.39.13a.09.09,0,0,0,.09.11c.22,0,.46.36.42.65a1.62,1.62,0,0,1-.09.38c-.07.18-.09.19-.57.17a4.16,4.16,0,0,1-.54,0s-.12,0-.19,0-.14.13-.17.44a2.46,2.46,0,0,1-.14.58c-.08.19-.09.27-.06.34a.6.6,0,0,1,0,.28c0,.17,0,.19.15.14a.2.2,0,0,1,.27.11c.08.13.13.14.26.07a1.12,1.12,0,0,1,.38-.08c.13,0,.23-.05.26-.13s.08-.12.12-.12.27-.32.28-.48a1,1,0,0,1,.51-.6.36.36,0,0,0,.23-.3c0-.25.25-.37.44-.24s.18,0,.41-.11a1.59,1.59,0,0,1,.35-.19s.18.15.31.34a2.73,2.73,0,0,0,.63.59c.39.25.5.41.42.73s0,.16.13,0,.17-.23.09-.29-.08-.1,0-.18.1-.08.21,0,.14.09.16.06-.36-.36-.46-.36a.07.07,0,0,1-.07-.08s-.05-.07-.1-.07-.2-.15-.32-.32A1.3,1.3,0,0,0,26,165s-.06-.09-.05-.19.22-.34.27-.16.07.1.13.07.12,0,.18.19a.53.53,0,0,0,.26.27,2.21,2.21,0,0,1,.39.25c.18.15.24.25.24.41a1,1,0,0,0,.25.51c.13.17.22.32.19.33s.2.39.3.39.07-.05.05-.12,0-.14.11-.19.15-.31-.12-.25c0,0,0,0,0-.11a.16.16,0,0,0,0-.16c-.11-.09-.07-.22.05-.16a.15.15,0,0,0,.18-.08c.13-.23.55-.07.49.18,0,.07,0,.12,0,.12s.07.07.06.19,0,.2,0,.2.06.06.07.12a.28.28,0,0,0,.18.21l.3.18c.11.07.16.07.23,0s.11-.11.27,0,.42.16.46,0a.29.29,0,0,1,.21-.09l.19,0v.33a3.47,3.47,0,0,1-.08.74c-.12.51-.3.66-.57.47s-.19-.1-.35,0a.65.65,0,0,1-.65,0c-.12,0-.39-.13-.59-.19s-.37-.13-.37-.17-.07-.08-.16-.11a.4.4,0,0,0-.51.32.65.65,0,0,1-.07.29c-.08.11-.12.11-.37,0a1.38,1.38,0,0,0-.43-.15.24.24,0,0,1-.21-.14c-.06-.14-.5-.36-.59-.29a1.34,1.34,0,0,1-.62-.33.7.7,0,0,1,.15-.19c.12-.12.13-.16.07-.27s-.07-.15,0-.27.07-.12,0-.07-.11,0-.11,0-.08-.07-.22,0l-.87.09a2.31,2.31,0,0,0-1.39.45,1,1,0,0,1-.73-.06c-.07-.12-.11-.09-.22.17a1,1,0,0,1-.33.39,1.3,1.3,0,0,0-.55.85c0,.2-.2.46-.55.68a2.47,2.47,0,0,0-.69.86.72.72,0,0,1-.14.25,3.67,3.67,0,0,0-.32.5c-.18.32-.19.36-.13.49s.06.29,0,.76a2.51,2.51,0,0,1-.32.85c-.05,0-.05.09,0,.21a.89.89,0,0,1,0,.4c0,.17,0,.22.08.27s.14.07.13.12a2,2,0,0,0,.18.39,1.26,1.26,0,0,1,.18.48c0,.35.54.74.83,1s.2.15.81,0a1.37,1.37,0,0,1,.57,0c.21.06.34,0,.68-.12s.88-.39,1.25-.16a.43.43,0,0,1,.17.24c0,.2.13.28.47.22a.46.46,0,0,1,.52.15c.13.12.2.25.18.32a2.31,2.31,0,0,0-.06.5,1.17,1.17,0,0,1-.08.46c-.08.13.05.37.46.79a3.06,3.06,0,0,1,.75,1.45c0,.14.07.38.1.53s0,.3-.08.43a1.89,1.89,0,0,0-.29,1,3,3,0,0,0,.6,1.11,1.7,1.7,0,0,1,.19.58,1.43,1.43,0,0,0,.35.88,2.34,2.34,0,0,1,.49.91c-.06.1.09.35.25.42a.28.28,0,0,0,.27,0,1.42,1.42,0,0,1,.49-.11,1.93,1.93,0,0,0,1.48-.75l.37-.44a.81.81,0,0,0,.23-.49c.05-.3.05-.31.33-.44s.28-.17.3-.4a1.74,1.74,0,0,0,0-.51c0-.24,0-.26.1-.37a3.06,3.06,0,0,0,.33-.31,1,1,0,0,1,.37-.29,1.28,1.28,0,0,0,.35-.26c.15-.17.16-.23.22-.78s0-.63,0-.69a.7.7,0,0,1-.08-.41,1.41,1.41,0,0,0,0-.5c0-.13,0-.23.16-.54a3.29,3.29,0,0,1,.39-.6l.55-.63a3.53,3.53,0,0,1,.52-.52,2.29,2.29,0,0,0,.78-1.34c.06-.27.12-.52.14-.57a1.44,1.44,0,0,0,0-.46c0-.36,0-.38-.12-.32a5,5,0,0,1-.67.24l-.59.16a1.63,1.63,0,0,1-.17-.2c-.11-.12-.16-.22-.12-.24s-.35-.56-.69-.81a1,1,0,0,1-.36-.51,1.24,1.24,0,0,0-.27-.47,1,1,0,0,1-.26-.55,1.35,1.35,0,0,0-.26-.59.83.83,0,0,1-.2-.34,3.61,3.61,0,0,0-.19-.43c-.1-.16-.22-.42-.29-.56s-.19-.37-.27-.52-.13-.26-.1-.26a1,1,0,0,1,.2.26c.18.33.31.39.29.14s0-.15,0-.07a4.58,4.58,0,0,0,.33.54,2.33,2.33,0,0,1,.28.5.56.56,0,0,0,.17.22,1.19,1.19,0,0,1,.37.72.71.71,0,0,0,.26.41.87.87,0,0,1,.25.31,1.64,1.64,0,0,0,.24.41,1.66,1.66,0,0,1,.24.49,2.34,2.34,0,0,0,.35.93s.14,0,.22-.08a.48.48,0,0,1,.22-.12.52.52,0,0,0,.21-.07c.07,0,.13-.07.15-.06a.39.39,0,0,0,.15-.12,1.55,1.55,0,0,1,.34-.23.78.78,0,0,0,.29-.28.42.42,0,0,1,.29-.24c.13,0,.2-.1.19-.16a.09.09,0,0,1,.09-.11.09.09,0,0,0,.09-.08.21.21,0,0,1,.09-.17.17.17,0,0,0,.08-.15c-.06-.08,0-.3,0-.3s.09-.12.12-.25,0-.15.06-.25a1.24,1.24,0,0,0-.14-.18.7.7,0,0,0-.29-.22c-.19-.06-.27-.18-.35-.45,0-.09,0-.13-.06-.22a2.1,2.1,0,0,1-.13.26c-.22.43-.68.43-.69,0,0-.23-.13-.31-.15-.09s0,.15-.13-.13a.92.92,0,0,0-.2-.34,1.18,1.18,0,0,1-.24-.35c-.16-.3-.16-.3-.08-.39s.3-.09.47.23.57.74.94.67c0,0,.1-.06.12,0s0,0,0,0,.08-.1.17.1a1.31,1.31,0,0,0,.13.23,2.53,2.53,0,0,0,1.44.1s.12.08.24.22c.27.34.5.54.55.48s0,0,0,0a.07.07,0,0,1-.07.09c-.1,0-.1,0,.09.23s.37.25.36,0,0-.16.1,0a.87.87,0,0,1,.09.29,5.5,5.5,0,0,0,.52,1.42,2.64,2.64,0,0,1,.2.43,2.34,2.34,0,0,0,.2.4,6.23,6.23,0,0,1,.28.59c.17.39.24.4.36,0a2.37,2.37,0,0,0-.08-1.29c-.08-.3-.08-.36,0-.4a.1.1,0,0,0,.06-.11s0-.06,0-.06.15-.25.26-.66c0-.12.09-.24.12-.24s.1-.15.06-.3,0-.14,0-.14l.16,0,.17-.05s0-.06,0-.14.09-.07.24.23a1.48,1.48,0,0,0,.24.36.24.24,0,0,1,.12.18c0,.06,0,.11,0,.11s.21.37.22.54,0,.17.07.2.15,0,.2-.14a1,1,0,0,0,0-.17l.12.29m-1.69,2c-.16-.3-.21-.33-.21-.16a2.3,2.3,0,0,0,.18.74c0,.09.08.09.15,0s.08-.25-.12-.6m-2.84,16.53s0,0,.06,0,0,0,0,0,0,0,0,0m-2-17.4s.06.06.09,0,0-.11-.06-.11a0,0,0,0,0,0,.07m-.26,8.51s0,0,0-.06,0-.06,0-.06,0,0,0,.07,0,.06,0,.05m-.16,7c0,.09.07.08.18,0s0-.06,0-.07-.12,0-.14.08m-2-6.91a.72.72,0,0,0-.16.5c0,.41.1.56.36.47a.72.72,0,0,0,.24-.1,8.05,8.05,0,0,0,.73-1.7l.08-.18a.38.38,0,0,0,.05-.22c0-.1,0-.11.07-.09s.08,0,.09-.23-.06-.62-.11-.62l0,.05a.34.34,0,0,0-.07.16.54.54,0,0,1-.13.23,2.13,2.13,0,0,0-.22.27,1,1,0,0,1-.33.25.65.65,0,0,0-.43.72.53.53,0,0,1-.12.49m-8.25,12.81s0,0,0-.07,0-.08,0-.08,0,0,0,.07,0,.08,0,.08m-2,.39a.1.1,0,0,0,0,.06s0,0,0-.05,0-.06,0-.06,0,0,0,.05m16.07-3c-.13.06-.18.07-.2,0a.18.18,0,0,0-.13,0s-.09,0-.08,0,0,0,0,0a.21.21,0,0,1-.1.06s-.07,0-.06,0,0,0,0,0-.2,0-.16,0,0,0,0,0l-.33.09-.24.05s0,0,0-.08.06-.08,0-.07-.06,0-.09.09-.07.09-.21.15a.5.5,0,0,0-.23.13c-.1.09-.2.13-.2.06s0,0,0,0a2.64,2.64,0,0,1-.64.26c-.13,0-.27,0-.29,0s-.21,0-.32.14-.11.08-.37.09a.64.64,0,0,0-.43.09c-.05,0-.08,0-.08.06h0a.48.48,0,0,1-.15.11,1.88,1.88,0,0,0-.52.18.56.56,0,0,1-.15.08,1.28,1.28,0,0,0-.26.16,2.56,2.56,0,0,1-.4.22,1.19,1.19,0,0,0-.29.16l-.08.05s0,0-.11.1-.34.28-.41.25,0-.15.09-.16l.11-.09c.08-.08.08-.08,0-.05s-.13,0-.08,0a.12.12,0,0,1,.08-.05.93.93,0,0,0,.28-.28s-.1,0-.27,0a2.58,2.58,0,0,1-.88,0,.12.12,0,0,0,0-.08c-.11-.1-.62,0-.65.16s0,.06-.11.05-.11,0-.11,0,0,.06-.12.05a.69.69,0,0,0-.24,0,.74.74,0,0,1-.21.09,1.28,1.28,0,0,0-.51.23c-.08.09-.23.14-.24.07s0,0-.06,0-.11,0-.15-.07-.1-.09-.17-.05-.28.18-.7.27a2.8,2.8,0,0,1-.74,0,2.75,2.75,0,0,0-1,0,.12.12,0,0,1-.14,0,3,3,0,0,0-1,0,1.31,1.31,0,0,1-.65.06c-.19,0-.33-.07-.32-.09s-.11-.06-.2,0-.08.1-.15,0-.09-.09-.19-.05a.21.21,0,0,1-.17,0c-.06,0-.06,0,0,0s.06.08,0,.13a.25.25,0,0,1-.14,0,.1.1,0,0,0-.08,0,.32.32,0,0,1-.14,0,.12.12,0,0,0-.12.07s0,.06.13,0,.11,0-.07.08-.22.12-.22.15-.09,0-.21,0c-.39-.06-1.66,0-1.71.18a1.45,1.45,0,0,0,.45.22h.24c.19,0,.2,0,.12.06l-.07.06.1,0a.32.32,0,0,1,.11.06s0,0-.09,0a21.51,21.51,0,0,0,3.87.35,21.81,21.81,0,0,0,12.94-4.23m-18.23-2.17a.34.34,0,0,0-.16-.09c-.11,0-.11,0,0,0s.22.13.16,0m-.26,5.5a.31.31,0,0,1-.09-.15c0-.11-.38-.23-.58-.21a.19.19,0,0,0-.14.12c0,.07-.07.11-.19.11h-.09l.89.26h.2c.07,0,.07,0,0-.13m-1.15-35.57c.06,0,.1,0,.09,0s0,.07,0,.07.05,0,0,.05,0,.07.09.07.16,0,.28-.24a1.31,1.31,0,0,0,.15-.33s.08-.13.19-.2.25-.22.18-.28,0,0,0,0,.08,0,.06-.12,0-.1.18-.15a.79.79,0,0,0,.3-.17c.1-.11.1-.11,0,0s-.05.12,0,.06a1.22,1.22,0,0,1,.28-.13,1,1,0,0,0,.36-.23c.1-.1-.61-.17-.58-.17a4.7,4.7,0,0,0,.86-.11c0-.1,0-.11.07,0s.61,0,1.07-.24c.27-.13.3-.16.23-.2a.91.91,0,0,0-.25-.07c-.1,0-.12,0-.07,0s.1-.06.1-.15,0-.1.09-.05.09.08.09.12.34.13.36.05a.44.44,0,0,0-.23-.38c-.14-.05-.22-.26-.11-.26a.05.05,0,0,1,.05.07c0,.07.2.22.26.17s.05-.15-.09-.23-.13-.11-.11-.13.08,0,.14,0,.39,0,.41-.09.05-.09.12-.11l.13,0h-.13c-.14,0-.14-.15,0-.15s.1,0,.11,0a.22.22,0,0,0-.17-.24c-.21,0-.18-.11,0-.13,0,0,0,0,0,0a.09.09,0,0,0,0,0c.12,0,.18,0,.17.06s0,0,.06,0,.08-.18-.06-.19a.13.13,0,0,1-.13-.08s-.05-.07-.11,0l-.09.05.11-.15c.06-.08.13-.14.16-.14s.08,0,.1-.1.08-.11.13-.11a.25.25,0,0,0,.16-.06,1.63,1.63,0,0,1,.51-.29l.23-.08-.22-.07a.7.7,0,0,0-.41,0,.68.68,0,0,1-.29,0,.38.38,0,0,0-.28.05c-.1.05-.19.08-.19.06s0,0,0,0,.08-.06.13-.11.07-.11-.14-.07-.21,0-.19,0,.11-.08.21-.08.19,0,.2-.06,0-.07-.13-.07a.72.72,0,0,1-.27-.06,3.4,3.4,0,0,0-1.31,0,.5.5,0,0,0-.26.1,1.15,1.15,0,0,1-.47.07c-.27,0-.41,0-.34.05s.15.12.08.13,0,0-.05.07,0,.08-.31,0-.37-.09-.37,0,0,.13-.17.06-.11,0-.14,0-.06,0-.08,0-.85.12-.89.23-.08.09-.19.1a1.89,1.89,0,0,0-.64.29s0,0,.08,0,.13,0,.11,0-.13.12-.4.2c-.49.17-.62.22-.64.26s.31.14.38.09,0,0,0,0-.11.08-.2.1-.17,0-.1.06a.24.24,0,0,1,.1.1s.17,0,.44,0c.43-.09.72,0,.73.12a.07.07,0,0,0,.06.07s.06.11.07.25,0,.27,0,.34-.15.23,0,.18a.25.25,0,0,1,.27,0c.08.11.08.28,0,.2a.37.37,0,0,0-.17,0c-.08,0-.11,0-.08-.06s0-.05,0,0a.15.15,0,0,0-.08.1s0,.07,0,.07-.06,0-.08.1,0,.18.2.11l.1,0,0-.09c0-.08,0-.08.06-.05s.11.07.1.1,0,0,.07,0,.06-.06,0,.1a.46.46,0,0,1-.19.19.63.63,0,0,0-.25.16c-.15.15-.16.17-.14.25s0,.09,0,.12-.05.08,0,.18a.57.57,0,0,1,0,.26c-.05.12-.05.12.13,0s.14-.08,0,.07-.13.16-.06.47.17.43.35.38m-.7,35.18s0,0,0,0-.14-.08-.14,0h0l.2.07m-.73-2.69a0,0,0,0,0,0,0,.09.09,0,0,0,.07.06s0,0,0,0a.1.1,0,0,0-.08-.06m.34,1.55-.12-.09c-.06-.05-.11-.1-.11-.12s0,0,0,0-.05-.06-.06-.12a.24.24,0,0,0-.11-.16c-.05,0-.09-.06-.09-.09s-.29-.32-.36-.33-.09,0-.13-.11a.57.57,0,0,1-.06-.12c.09-.12.15-.15.21-.12s.06,0,.06-.05.16-.18.28-.15.08,0,.07,0,0-.06.08-.07l.1,0-.11,0h-.12a.19.19,0,0,1-.12,0A1.1,1.1,0,0,0,17,193a.71.71,0,0,1-.17.11c-.07,0-.12.1-.11.13a.08.08,0,0,0,.05.05s.05,0,.08.13,0,.14-.05.11-.12,0,.15.33a1.26,1.26,0,0,1,.14.2c0,.07-.09.1-.4,0s-.33-.06-.4-.15-.09-.09-.14-.07,0,0,0,.05a.17.17,0,0,1,.06.06s0,0-.11,0l-.22-.11-.19-.1c-.06,0-.1-.05-.12,0s-.05,0-.25-.05l-.26-.14a.38.38,0,0,0-.17-.08.47.47,0,0,1-.18-.1.17.17,0,0,0-.13,0,5.79,5.79,0,0,1-1.32-.53c-.07,0-.1,0-.09,0a.58.58,0,0,0,.2.12c.09,0,.18.08.19.11s-.05,0-.14,0-.13-.05-.09,0l.12.11.09.06.06.05a21.29,21.29,0,0,0,2.66,1.53s.08,0,.06,0a.62.62,0,0,0-.23-.12.57.57,0,0,1-.19-.12s0,0,.1,0a2.86,2.86,0,0,0,.74.28s0-.06-.15-.11-.52-.31-.48-.35a.59.59,0,0,1,.26.11,1.57,1.57,0,0,0,.73.25l.36,0c.16,0,.24,0,.25,0s0-.05.06,0,.07,0,.1,0,0-.11,0-.12a.21.21,0,0,1-.07-.05s0,0,.1,0l.12.05m-.82.58c-.07,0-.13,0-.14,0l.16.08.14,0c.13,0,.06-.08-.16-.09m-3.69-2.23c-.16-.07-.24-.09-.18-.06a.32.32,0,0,1,.1.08s0,0,.07,0l.24.08c.27.1.07,0-.23-.15m.05-5.24s0,0,0,.05,0,.07.06.07,0,0,0-.05a.11.11,0,0,0-.06-.07m.88,5.69a.1.1,0,0,0,0-.06s0,0,0,0,0,0,.06,0,0,0,0,0m.3-3.65s-.06,0-.06.07,0,.08.07,0,.08-.1,0-.11m.26,0c-.05,0-.11,0-.12.07s0,.09.06.06.18-.11.06-.13m.8,4c-.06,0-.08,0-.06,0a.36.36,0,0,0,.1.07s.06,0,.06,0,0-.05-.1-.07m.82-.47a.07.07,0,0,0,0-.08c0-.07-.07-.07-.09,0s0,.14.06.1m-.64.18.06,0s0,0,0,0,0,0,0,0m0,.12s.06.05.13.06.17,0,0,0-.14,0-.14,0m.6.37c-.12,0-.1,0,.11.08.36.09.36,0,0-.4-.2-.22-.24-.24-.34-.23s0,0,0,.11a.18.18,0,0,1,0,.13s0,0,.06.06.11.07,0,.05h-.18l-.1,0s0,0,0,.06a.21.21,0,0,0,.18.06.26.26,0,0,1,.18,0c.07,0,.07.06,0,.07m.43-1.06s0,0,0,.05.05,0,0,0,0-.06-.07,0m-6-20.76c0,.06.38.18.46.12a.61.61,0,0,1,.24,0,.72.72,0,0,0,.21,0,.4.4,0,0,0-.1-.19c-.13-.19-.54-.28-.5-.12s-.05.31-.18.26-.12,0-.13,0m.05-1.63s0,0,.06-.07,0-.08,0-.08,0,0-.07.07,0,.08,0,.08m-.41,1.67c-.05-.1-.22-.12-.23,0s.07.08.13.09.13,0,.1-.07m.1-.57c0,.09,0,.11.14.13s.36-.09.25-.19a2.57,2.57,0,0,1-.19-.21c-.38-.51-.49-.58-.73-.49a.7.7,0,0,0-.24.17c-.09.11-.09.11,0,.07a.54.54,0,0,0,.18-.11c.08-.09.21-.07.17,0a.07.07,0,0,0,.07.08s.1,0,.09.08a.1.1,0,0,0,.09.09c.05,0,.08.06.08.12s0,.12.06.12.07.05,0,.12m1.46.63a.13.13,0,0,0-.14.07s0,.08.09.08a.14.14,0,0,0,.14-.06c0-.05,0-.09-.09-.09m.22,2.17s-.06,0-.07.07,0,.08,0,.08.06,0,.07-.07,0-.08,0-.08m3.16-9.68-.11-.12s0,0,0,.07.07.12.12.11.07,0,0-.06m.45-.79c0-.13-.21-.17-.19,0a.29.29,0,0,0,.11.11c.1,0,.11,0,.08-.06m1.17,0c-.1,0-.16,0-.18-.07s-.05-.09-.08-.06,0-.09.19-.29,0-.16-.2.07a1.81,1.81,0,0,0-.27.34c0,.08-.1.14-.12.14s-.06.05-.09.11-.06.11-.09.11-.05,0-.07.08.11.06.3,0,.32,0,.24.09,0,.1.24-.14.2-.2.16-.18,0,0,0-.12.08-.16-.05-.13m0,.43c.08-.11,0-.07-.12.08s-.13.14-.07.19.09,0,.13,0,.06-.12,0-.13,0-.06,0-.1M13.84,163a.11.11,0,0,0-.07,0l0,.07s.05,0,.07,0,0-.07,0-.07m.64-.8a.12.12,0,0,0-.09.07s0,.05,0,0a.38.38,0,0,0,.09-.08s0,0,0,0m.42-1.57a.25.25,0,0,0-.14.08s0,.06,0,.06a.25.25,0,0,0,.14-.08s0-.07,0-.06m.31.1a.16.16,0,0,0-.11.08s0,.07,0,.06a.23.23,0,0,0,.11-.07s0-.07,0-.07m0-.33s0-.06,0-.06-.05,0,0-.06-.08-.17-.2-.2,0,0,0-.09a.28.28,0,0,0,0-.07l-.09.05a1,1,0,0,0-.19.21,1.36,1.36,0,0,1-.22.28c-.1.09-.1.09,0,.05s.1,0,.1,0,0,.05.18-.06.19-.12.25-.07.15.08.19,0m.28,0s0,0,0,0,.05,0,.07,0,0-.05,0,0m.64-1.38c-.06.06-.1.11-.08.11l.13-.11c.12-.13.11-.13,0,0m.32.29h.09s0,0,0,0-.07,0-.06,0m0-.16-.15.06c-.18.07-.34.3-.19.29s.19-.08.28-.24l.06-.11m-8,4.55.1-.16c.07-.12.08-.16,0-.15a.16.16,0,0,0-.08.06.56.56,0,0,0-.06.25m-.43-.87c.05-.06.06-.07,0-.06a.23.23,0,0,0-.07.07,1.43,1.43,0,0,1-.12.11c-.11.07-.16.17-.07.11s.22-.18.18-.17,0,0,0-.06m5.06,26.86c0-.09,0-.15.05-.14s.07,0,0,.09,0,.08.05.09.07,0,0,.1-.05.08-.07.08a.07.07,0,0,0,0,0s0,.05.12.07.14.05.14.08,0,.06.1.08.1,0,.06,0,0-.07,0,0a.47.47,0,0,0,.26.08c.19,0,.26-.07.09-.11a1.16,1.16,0,0,1-.49-.37.51.51,0,0,0-.13-.14c-.09-.05-.1-.06-.05-.05s.06,0,0-.15-.12-.27,0-.25.07,0,.06-.12a.25.25,0,0,1,.09-.19c.12-.07.11-.25,0-.27s-.33-.39-.13-.42c0,0,.1,0,.1-.09a1.29,1.29,0,0,0,0-.36s0-.05,0,0,0,0,0,0a.67.67,0,0,1-.13-.19c-.06-.14-.06-.14.15-.07s.22.07.22-.08a.68.68,0,0,0,0-.23c0-.05,0-.08.14-.06.32,0,.5,0,.57-.15s.08-.3,0-.31-.07-.07-.08-.13a.49.49,0,0,0-.14-.21A.29.29,0,0,1,14,186s0,0,.06,0a1.1,1.1,0,0,0,.36.17c.25.07.28.06.39-.08a1,1,0,0,0,.13-.38c0-.26.12-.45.17-.39a.14.14,0,0,1,0,.13s0,0,0,0l.15-.3a.81.81,0,0,0,.06-.5.78.78,0,0,1,0-.42,1.38,1.38,0,0,1,.83-.42c.17,0,.37-.13.35-.25a1.85,1.85,0,0,1,.09-.31.91.91,0,0,0,.07-.28,1.06,1.06,0,0,1,0-.3,2.77,2.77,0,0,0,0-.7c0-.32,0-.46,0-.57a4,4,0,0,0,.6-1.12,1.53,1.53,0,0,0-.08-.52c-.07-.25-.12-.32-.23-.33a1.41,1.41,0,0,1-.5-.37c-.29-.28-.41-.36-.62-.38a1.14,1.14,0,0,1-.37-.12.23.23,0,0,0-.25,0c-.11.05-.12,0-.14-.11s-.09-.2-.36-.36l-.33-.21-.11.22c-.06.13-.13.19-.16.16s0-.13.06-.2.08-.3-.12-.37-.17,0-.23.14-.08.18-.1,0a.74.74,0,0,1,.1-.38c.11-.2.12-.23,0-.34a1.06,1.06,0,0,1-.18-.37,5.93,5.93,0,0,0-.23-.55.59.59,0,0,0-.49-.37c-.33-.07-.36-.1-.49-.44s-.17-.37-.25-.38-.12,0-.06-.17,0-.16,0-.2a.25.25,0,0,1-.11-.19c0-.12,0-.12-.24,0s-.25.07-.28,0a.25.25,0,0,0-.2-.08c-.09,0-.15,0-.18-.14s-.06-.17-.1-.18a.06.06,0,0,1-.06-.06s0,0,0,0-.06.1-.1.09a.27.27,0,0,0-.16.08c-.12.12-.12,0,0-.18s.11-.25-.09-.09-.21.14-.24.13a.18.18,0,0,0-.11,0s-.07.07-.1.06l-.08,0s-.06,0-.08.1a1.85,1.85,0,0,1-.21.33c-.19.21-.18.21-.23.06s-.16-.28-.35-.17-.18.09-.24,0a1,1,0,0,1-.07-.32c0-.19,0-.25.19-.7s.21-.5.18-.63-.08-.14-.29-.16-.36,0-.27-.13a1.83,1.83,0,0,0,.18-.35c.06-.15.11-.25.12-.23s.06,0,.11-.16a2.82,2.82,0,0,1,.18-.32c.16-.25.15-.3,0-.27a.45.45,0,0,0-.43.35c-.07.18-.29.43-.31.36s-.08,0-.16,0-.3,0-.26-.49a2.19,2.19,0,0,1,.22-.82,1.87,1.87,0,0,1,.23-.48.73.73,0,0,0,.11-.26c.09-.25.31-.57.4-.57a.35.35,0,0,0,.17-.12.47.47,0,0,1,.58,0c.12.07.12.07.17-.09s.07-.17.28-.16.23,0,.24.11.06.08.13,0,.18.21.08.41a.62.62,0,0,0-.08.31,1.17,1.17,0,0,1,0,.24c0,.07,0,.27,0,.27s.08-.08.14-.18a3.57,3.57,0,0,0,.24-.92,1.81,1.81,0,0,1,.08-.32,1.3,1.3,0,0,1,.32-.45.68.68,0,0,0,.22-.19.63.63,0,0,1,.22-.18.35.35,0,0,0,.14-.11.31.31,0,0,1,.17-.11s.08,0,.1-.13,0-.1.05-.07,0,0,.08,0,0-.08,0-.08,0,0,0-.1a.32.32,0,0,0,.08-.17,1.17,1.17,0,0,1,.19-.55c.05-.06,0,0,0,.16s-.07.23,0,.11a.67.67,0,0,0,.13-.25c0-.07.05-.1.1-.1s.12-.07.18-.19.14-.19.22-.19.1,0,.08-.07,0-.08.2-.1.23-.08.23-.16a.81.81,0,0,1,.46-.57,2.82,2.82,0,0,0,.32-.18l.16-.09.19-.06c.14-.05.14-.05,0,.06a.47.47,0,0,1-.17.12s-.13.21-.1.27.1,0,.2-.09a.9.9,0,0,1,.25-.15,1.17,1.17,0,0,0,.51-.34c0-.08,0-.08,0,0s0,.07.08,0,.08-.08.05-.08,0-.06,0-.14,0-.1-.12.06-.21.19-.31.18a.27.27,0,0,1-.17-.4c0-.11,0-.16,0-.16s-.06,0,0-.06a.34.34,0,0,0,.19-.16c0-.08,0-.11-.16-.11a1.39,1.39,0,0,0-.76.44c-.13.12-.11.1.06-.09a2.38,2.38,0,0,1,.4-.36l.31-.22c.12-.09.23-.11.53-.08s.42,0,.59-.11a2.82,2.82,0,0,1,.41-.23.39.39,0,0,0,.3-.29c.08-.18.07-.22,0-.3s-.1-.12-.05-.16.07-.07,0-.07-.11,0-.11-.07l-.09,0s-.09-.06-.09-.09a.31.31,0,0,0,0-.15.19.19,0,0,1,0-.18,1.58,1.58,0,0,0,0-.53c0-.16,0-.25,0-.41l-.2.23c-.23.26-.44.37-.46.24s-.05-.06-.1,0-.06,0,.05-.23.12-.26,0-.3-.1-.06-.09-.09-.08-.21-.22-.19a.65.65,0,0,1-.24,0,.22.22,0,0,0-.17,0,2.3,2.3,0,0,0-.16.36,1.18,1.18,0,0,1-.25.43c-.13.14-.13.15-.08.22a.64.64,0,0,1-.15.52,1.39,1.39,0,0,1-.3.26l-.23.15-.08.26c-.12.38-.15.45-.3.54s-.13.05-.15-.14a.71.71,0,0,1,0-.3c.25-.47.25-.48,0-.47s-.18,0-.17-.06,0-.06-.06-.06-.09-.06-.12-.14a.26.26,0,0,0-.24-.13c-.14,0-.16,0-.11-.16s0-.18,0-.2,0-.16.25-.49a2.11,2.11,0,0,1,.62-.54.1.1,0,0,0,.09-.06.48.48,0,0,1,.31-.24,1.92,1.92,0,0,0,.61-.59s0,0,.09,0,.11,0,.11.08,0,0,0,0a.16.16,0,0,1,.14-.12.9.9,0,0,0,.22-.11l.12-.09,0-.09c0-.09,0-.21.07-.2s0,0,.09-.05,0-.1,0-.15l-.12-.08a1.54,1.54,0,0,1,.29,0c.24,0,.32,0,.34-.11s.06-.1.13,0a.2.2,0,0,1,0,.15s0,0,0,0,.09,0,.07,0,0,.09.09.13.1.35-.19.51c-.08,0-.11.07-.11.14s0,.09-.16.13a.45.45,0,0,1-.21,0c-.06,0-.22.08-.28.2s.09,0,.26,0,.29,0,.3,0,.05.09.08.08,0,0,0,0,0,.25.1.18.06,0,.07,0a.21.21,0,0,0,.12.1l.15.07c.1.07.11-.11,0-.25s-.06-.23.1-.07.15.11.23,0a.3.3,0,0,0,.1-.28c0-.09,0-.16,0-.16s-.06,0-.08-.1,0-.11.08-.21.16-.08.22.14.14.15.19,0,.06-.08.06-.06.1,0,.2-.13.1-.1.17-.17l-.14,0c-.07,0-.13-.06-.12-.1s0-.09-.11-.1c-.27-.05-.33-.25-.1-.29q.09,0,0-.06c-.07,0-.06-.05,0-.06a.11.11,0,0,0,.09-.09s0-.05-.09,0-.08,0,0,0,0-.08-.11-.07-.07,0,0,0-.12-.16-.2-.08-.09,0-.12-.09-.07-.15-.11-.14-.05,0,0-.05,0-.18-.23-.16-.17.05-.2.1,0,.06,0,0,0-.06-.18,0-.38.18-.45.34,0,.12,0,.12,0,0,0,0-.07.09-.11,0a.2.2,0,0,1,0-.15l.08-.13a.61.61,0,0,1,.14-.13c.11-.09.11-.1,0-.07a.85.85,0,0,0-.51.34c-.16.17-.16.18-.17.31s0,.14.2.15.17,0,.13,0-.16.16-.1.15,0,.06-.12.14-.15.14-.17.12,0,0-.08.08-.14.17-.15.06,0-.09.08-.15.07-.08,0-.14-.06-.05-.16,0-.17.15-.1,0,0-.12,0-.11,0-.08,0-.14,0-.33,0-.32,0-.06.11-.14.16-.13.18-.12a1,1,0,0,0,.42-.3,1.56,1.56,0,0,0-.56.15.38.38,0,0,0-.13.19.48.48,0,0,1-.22.31.55.55,0,0,0-.19.21c-.08.12,0,.19.09.2s0,0,0,.07,0,.06,0,.05,0,.12-.18.18a.29.29,0,0,0-.17.17c0,.09-.06.11-.09.09s0-.06,0-.1a.19.19,0,0,0,0-.14s0-.07,0-.07l.11,0c.06,0,.06,0,.06-.09s-.1-.14-.25,0-.15.12-.09.11.06,0-.06.17-.6.17-.64.06-.3,0-.34.09.05,0,.13,0,.16-.08.15-.06-.06.05-.14.09a.37.37,0,0,0-.19.18.74.74,0,0,1-.11.16s0,0,0-.06,0-.15-.36-.07-.23.06-.2,0a.51.51,0,0,1,.13-.09c.12,0,0-.1-.11-.06a.67.67,0,0,1-.24,0,.23.23,0,0,0-.24,0c-.08,0-.13,0-.12,0s0,0-.06,0-.15.11-.13,0,0-.08-.06,0a1.16,1.16,0,0,1-.22.13,1.69,1.69,0,0,0-.56.3c-.08.07-.12.08-.19.06s0-.16-.33-.05l-.13,0-.12,0H9.7l-.09,0a1.43,1.43,0,0,1-.15.11l-.26.19c-.19.21-.37.43-.54.65l0,0c.05-.06,0,0-.07.12a.21.21,0,0,1-.08.06l-.22.27.08,0c.07-.05.07-.05,0,0l-.09.13a.87.87,0,0,1-.2.16l-.47.66s0,0,0,.1-.07.12,0,.07.08,0,.08,0,0,0,0,0a.23.23,0,0,1,.09-.07c.06,0,0,0-.06.12a2,2,0,0,1-.29.3l-.21.21s0,.05,0,0,0,0-.07,0l0,.08.12-.09a2,2,0,0,0,.25-.2,1,1,0,0,1,.17-.14s0,0,.06-.06l.16-.15a2.15,2.15,0,0,0,.22-.19c.09-.08.09-.09.06-.08s0-.1.12-.16l.11-.09a1.23,1.23,0,0,1,.33-.29s0,0,0,0-.3.29-.26.28,0,0-.05.06,0,.06.13-.06a.59.59,0,0,1,.16-.12s.06,0,.1-.1.08-.13.1-.05,0,.07.07.07,0,.16,0,.23,0,.07.14,0l0,.06c-.1.13-.22.43-.18.42a2.13,2.13,0,0,0,.18-.37.07.07,0,0,1,0,0s0,0,.07-.08,0-.05,0,0a.52.52,0,0,1-.06.13l-.07.12s0,.06,0,.05a.17.17,0,0,0,.07-.1c0-.06.06-.08.07-.07a.46.46,0,0,1-.14.23s-.06,0-.09.07,0,0,0,0,0,0,0,.1a.85.85,0,0,0-.07.21c0,.05,0,0,.07-.06s.06-.11,0-.09,0,0,0-.08,0-.12.09-.13,0,0,0,0-.09.32,0,.28,0,0-.1.18-.15.28,0,.12.06-.06,0,.07-.1.15,0,.11,0,0,0,.09l-.07.15c-.07.09-.08.15,0,.14s0,0,0,.06-.07.06-.12,0,0,0,0,0,0,.5.1.46a.17.17,0,0,0,0-.15c0-.11,0-.27.08-.27s0,0,0,0,0,.08,0,.09,0,.13,0,.3-.07.12-.17,0,0,0-.08.14a3.1,3.1,0,0,1-.31.59,11,11,0,0,0-.65,1.22.58.58,0,0,1,0,.13c-.08.14-.11.36-.06.31s0,0,0,.06a1.29,1.29,0,0,0-.12.39,1.62,1.62,0,0,1-.09.34.09.09,0,0,0,0,.09c.1.06.1.19,0,.66a3.49,3.49,0,0,0-.11.59c0,.16,0,.19-.08.27s-.1,0,0,.41A.53.53,0,0,1,7,170c0,.11,0,.62,0,.55s.08-.25,0-.28a.65.65,0,0,1,0-.3c0-.15.08-.29.08-.31a2.16,2.16,0,0,1,0-.35c0-.17,0-.35,0-.38a1.67,1.67,0,0,1,.08-.29c.09-.23.09-.23.14-.16a.55.55,0,0,1,0,.33,2.31,2.31,0,0,0-.08.61,1.64,1.64,0,0,1,0,.39s0,.21,0,.42a1.75,1.75,0,0,1-.13.92.79.79,0,0,0-.09.19,1,1,0,0,0,.14.51.67.67,0,0,1,.09.14,1,1,0,0,0,.2.31c.17.21.19.22.32.13s.2-.06.25.28a.68.68,0,0,0,.44.5,0,0,0,0,1,.05.06,1.11,1.11,0,0,0,0,.29.94.94,0,0,1,0,.38c0,.1,0,.18,0,.18a.23.23,0,0,1,.15.28c0,.11,0,.11.1.16s.1.09.13.17.17.18.18,0,.22-.36.26-.29a2.41,2.41,0,0,1,0,.37c0,.33-.1,1.29-.24,1.34a.35.35,0,0,0-.06.2c0,.11,0,.2-.05.19a1.77,1.77,0,0,0-.1.82c0,.09.06.16.1.16s.1.19,0,.31a.89.89,0,0,0,.14.83,3.65,3.65,0,0,1,.34.71,8.29,8.29,0,0,0,.38.86,2,2,0,0,1,.16.43,1.88,1.88,0,0,0,.6.75,1.5,1.5,0,0,1,.62,1.06,11.57,11.57,0,0,1,.23,1.67,2,2,0,0,0,.05.4.14.14,0,0,1,0,.14s0,.13,0,.28a2.28,2.28,0,0,1,.08,1,1,1,0,0,0,.05.5c0,.11.08.23.06.26a.94.94,0,0,0,0,.3,2,2,0,0,1,.05.34c0,.08,0,.1,0,.09s0-.09,0-.17,0-.15,0-.15.11.17.16.51c0,0,0,.15,0,.25s0,.18-.06.14a.11.11,0,0,0-.16,0s0,.08,0,.07c.18,0,.24.09.31.45l-.1-.09c-.06-.06-.11-.1-.11-.08s0,.06,0,.08a.49.49,0,0,1,.1.23c0,.15,0,.15.06.08s0-.1.05-.09.06.25,0,.29,0,0,0,0,.12.07.24.27.14.26.12.25,0,0,0,.06a.14.14,0,0,0,.14.05s.09,0,.09,0,0,.05,0,.06.06-.06.05-.15M7.64,176.82a1,1,0,0,0,0-.13s0,0,0,.06,0,.13,0,.13,0,0,0-.06M4.6,171s0,0-.06.11,0,.12,0,.1a.3.3,0,0,0,0-.1.26.26,0,0,0,0-.11m6.84-11.82a.13.13,0,0,0,.06.05c.06.06.28,0,.35-.13a1.27,1.27,0,0,1,.33-.27l.1-.06-.15.14-.16.15h.08c.11,0,.11,0,0,.06a.28.28,0,0,0-.12.08s.1,0,.25,0,.25,0,.23,0a.21.21,0,0,1-.14,0,1.35,1.35,0,0,0-.26.09l-.15.09,0,.05s.07,0,.12,0,.08,0,.08,0,.48-.09.64-.22.12-.07.16,0,.46-.07.38-.16,0,0,.09-.06l.11,0-.05,0s-.08-.06-.11-.05,0-.07,0-.21.08-.22.16-.29l.11-.12c0-.06-.17,0-.23.08a.38.38,0,0,1-.13.09c-.06,0-.07,0-.12.15s-.13.22-.09.06,0-.12-.16,0-.08.06-.07,0,0-.05-.12,0-.13,0-.09,0,0-.06-.05,0-.08,0,0,0,0-.14-.13-.09l-.2.05a.7.7,0,0,0-.24.09c-.08,0-.12.08-.12.1s-.05.09-.19.22l-.18.19m.81-.89h.1a.35.35,0,0,0,.16-.08s.06-.05,0,0,0,0,.1-.07.11-.09.08,0,.17-.06.26-.17-.2,0-.49.22l-.25.18m.37-.07c.06-.06.07-.07,0,0a.19.19,0,0,0-.11.08c-.07.08,0,.06.09,0M13,158a.58.58,0,0,0-.29.19l-.15.15.07,0h.11a.38.38,0,0,0,.13-.08s.07,0,.07,0,0,0-.06.06-.07,0-.07.08.08,0,.27-.1a1.61,1.61,0,0,1,.37-.16.56.56,0,0,0,.33-.24s0,0-.08,0-.13,0-.11,0,0-.11-.1,0-.07.07-.07.14,0,.07-.1.1-.12,0-.14,0-.1,0-.18,0m.19-.28s0,0,0,0,0,0,0,0-.05,0,0,0m.22,0a.56.56,0,0,0,.19-.1s0-.05-.1,0a.46.46,0,0,0-.18.11s0,0,.09,0m.18-.2c.12,0,.16-.06.15-.08a.05.05,0,0,0,0,0l-.15.09c-.12.06-.11.07,0,0m.24.48c.07-.07.09-.1,0-.09a.16.16,0,0,0-.07.07s0,0,0,0m.08.31s0,0,0,.05-.09.07-.12,0-.05,0-.08,0,0,.07,0,.08.07.06.11.11.07.07.1,0a.26.26,0,0,1,.14-.09c.12,0,.24-.2.15-.23s-.06,0,0-.12.1-.1.08-.11a.67.67,0,0,0-.32.09c-.09,0-.17.15-.09.14m0-.57s0,0,0,0,.06,0,.05,0,0,0,.13,0,.13-.06.07,0-.06.1,0,.08a.55.55,0,0,0,.33-.29c.06-.1,0-.11-.08-.08s-.15.05-.14.09-.07.08-.09,0,0,0-.07,0-.06.08-.1,0-.13-.06-.15,0m.06-.16s.05,0,0-.06,0-.05-.06,0,0,.05,0,0m.27-.36c.07,0,.08,0,0,.05s0,0,.1,0,.19,0,.18,0,.1,0,.14,0,0-.16-.1-.15h-.2a.16.16,0,0,0-.15.07s0,0,.05,0m.6.42s0,0-.18.06l-.12.08.05,0c.11.07.3,0,.25-.17m.1-.18c.06,0,.12,0,.12,0s0,.09,0,.09,0,0,0,.08.1,0,.57,0a4.44,4.44,0,0,0,.71-.18l.1-.06,0-.07c0-.05-.17,0-.51.06s-.47.12-.5,0-.1-.09-.22-.08H15s-.08,0-.1,0,0,.11.15.07m0-.27s0,0,0,0,.06,0,.14,0,.13-.05,0,0-.07,0,0-.09,0-.08,0-.07H15a.09.09,0,0,0-.1.05.07.07,0,0,0,.07.11m-.07-.31s0,0,.08,0,0,0,0,0-.07,0-.06,0m.61.36s0,0-.05.07,0,.06,0,.05,0,0,0-.07a.05.05,0,0,0,0,0m0-.06c.05,0,.06,0,.05-.06s-.08-.05-.1,0,0,.05,0,0m-.07-.38c.12,0,.13,0,0,0s-.14.12,0,.16.19,0,.52-.19c.07,0,.08,0,0,0s-.08.12.06.08.1,0,.08,0,0,.06,0,.06-.06,0-.16,0-.17,0-.15.06,0,.05-.13.11c-.33.16-.19.17.37,0s.77-.17.67-.22-.06,0,0-.09a.33.33,0,0,0,.12-.11.27.27,0,0,1,.15-.08.52.52,0,0,0,.24-.13c.11-.1.11-.1,0-.09s-.06-.08.06-.11a3.93,3.93,0,0,0,.77-.35l.41-.19c.1,0,.17-.09.16-.12s.1-.08.25-.12a.91.91,0,0,0,.31-.14,3.47,3.47,0,0,0-1.88.25,1.28,1.28,0,0,0-.42.19.35.35,0,0,1-.19.06.34.34,0,0,0-.21.05,1.36,1.36,0,0,1-.3.13c-.2.06-.28.13-.22.19a.18.18,0,0,0,.27,0,.23.23,0,0,1,.11-.08c.05,0,0,0,0,.06s0,.05.08,0c.28-.07.44-.09.4-.05a1,1,0,0,1-.33.1c-.21,0-.29.08-.3.13s0,0-.07,0a.16.16,0,0,0-.09,0H16a.43.43,0,0,0-.29-.08c-.18.06-.23.09-.25.13s-.05.06-.09.08a.41.41,0,0,0-.12.11c-.08.1,0,.13.17.08m5.23-1.93c0,.06.21,0,.25,0s0,0-.1,0a.34.34,0,0,0-.15,0m4.49,4.47a1.19,1.19,0,0,0-.37-.37s0,0,0,.07a.53.53,0,0,1-.29.1,1,1,0,0,0-.33.09s-.11,0-.14-.06a.12.12,0,0,0-.17-.07c-.19.08-.23.19-.08.19s.14,0,.08.1-.07.11,0,.11.07.12,0,.17.08.06.24.08c.35,0,1-.11,1.11-.41m-2.32,2s.06,0,.08-.08,0-.08,0-.07a.12.12,0,0,0-.09.07s0,.08,0,.08m-.08,1.13a.17.17,0,0,1,.06-.15.33.33,0,0,0,.06-.19c0-.16-.37-.15-.44,0a.2.2,0,0,1-.15.12c-.08,0-.12.05-.14.15a.26.26,0,0,0,0,.19s0,.06-.06.16-.11.13-.06.2a.18.18,0,0,0,.18,0,2.18,2.18,0,0,1,.27-.11.43.43,0,0,0,.26-.41m1.22.4c.11-.11.08-.27,0-.27s-.11-.08-.13-.19a.37.37,0,0,0-.12-.22.25.25,0,0,1-.09-.2.25.25,0,0,0-.1-.18c-.08,0-.08-.06,0-.18s.14-.34,0-.3-.2,0-.06-.13.08-.1,0-.1a.34.34,0,0,0-.2.06,1.49,1.49,0,0,0-.17.31c-.09.2-.1.25-.05.22s.06,0,0,.12,0,.12,0,.06.14-.1.08.11,0,.2.08.16.15,0,.14,0,0,.12,0,.11,0,.06,0,.12a.2.2,0,0,1-.16.12c-.11,0-.12,0-.08.12s0,.12-.06.16a.22.22,0,0,0-.13.12s0,.06,0,0a.35.35,0,0,1,.21,0c.13,0,.13.06,0,.07a.7.7,0,0,0-.27.17c-.11.13-.12.15,0,.12a1.32,1.32,0,0,1,.38-.1l.44-.08.22,0a.08.08,0,0,0,.05-.1s0-.12.07-.18m1.28-7.45a.11.11,0,0,0,.08.07s0,0,0,.06.24.18.35.11a.19.19,0,0,1,.19,0c.08,0,.06,0-.11.1s-.21.06-.1.11.09,0,0,0,0,.07.1.13.2.12.23,0,.06-.12.09-.11.08-.07.12-.14.1-.14.14-.14.23.14.21.23.33.11.38,0,0-.06,0,0-.12,0-.23-.1a2.3,2.3,0,0,0-.34-.18.26.26,0,0,1-.16-.11.05.05,0,0,0-.08,0s-.06,0-.07,0-.2-.1-.21,0a.45.45,0,0,0,0,.11s0,0-.05,0-.62-.11-.59,0m1.25,0a1.3,1.3,0,0,1,.32.09c.09.06.56-.09.51-.16a1,1,0,0,0-.56-.1.65.65,0,0,1-.3,0c-.35,0-.33.09,0,.17m4.14.4c0,.1,0,.1.22,0l.18-.07h-.19a.29.29,0,0,0-.21,0m.7,2.75a.11.11,0,0,0,0,.11s.19,0,.17-.09-.2-.1-.21,0m.44-.48a.37.37,0,0,1,.18.11.46.46,0,0,0,.29.12l.21,0-.18-.16a.64.64,0,0,1-.2-.24c0-.11.28-.55.37-.53s.06,0,.06,0,.2-.12.65-.18c.14,0,.24-.06.23-.09s-.27-.11-.37-.05a.91.91,0,0,1-.25,0c-.32,0-.7.1-.77.27s-.1.15-.13.15-.05,0,0,.09,0,.1,0,.1-.06.05-.08.13-.06.13-.1.12,0,.16.15.18m0-2.07c0,.08.06.09.1,0s0-.06-.05-.07-.06,0-.05.06m.23,0c0,.07.29.08.3,0s-.07,0-.17-.07-.16,0-.13,0m.46.07a.31.31,0,0,0,.13,0s0,0,0-.05a.21.21,0,0,0-.13,0c-.06,0,0,0,0,.05m3.3.86c.09,0,.16,0,.15.06s.11.15.4.26.26.09.21,0a.3.3,0,0,0-.19-.19c-.07,0-.14-.07-.15-.11s-.46-.3-.52-.19,0,.07,0,.09,0,0,0,.05,0,0,.12,0m.86.58.27,0a.88.88,0,0,0,.27,0c0-.05-.08-.11-.18-.14s-.12-.06-.13-.09-.15-.05-.19,0a.76.76,0,0,1,0,.11m1.68,1.12s-.05,0,0,0,0,.07.07.07,0,0,0,0a.11.11,0,0,0-.07-.08m2.17.69c.09.08.5.21.49.16s-.07-.11-.28-.21l-.25-.14a.07.07,0,0,0-.07,0s0,.13.11.22m.39.35s0,0,.06.09.19.11.13,0-.19-.18-.19-.13m.26-.11a.57.57,0,0,0,.17.12l-.11-.12-.06,0q-.09,0,0,0M44.09,165s0,.05,0,0a.06.06,0,0,0,0-.08s0,0,0,0m0,1.3a.69.69,0,0,1-.15-.15c-.16-.24-.18-.25-.11-.07s.12.36.09.36,0,.2,0,.31.06.09.05,0,0-.08,0-.08a.09.09,0,0,1,0-.05c0-.07.08-.06.16,0s.07.05.06,0,0-.09,0-.08,0-.21-.11-.26m.25,1.19a1.15,1.15,0,0,0-.15-.41,1.19,1.19,0,0,0-.13-.24l0,.07s0,.07,0,0,0,.07,0,.31a1.12,1.12,0,0,1,.06.58c0,.08,0,.08-.07,0s0-.11,0,0c.07.34.06.39,0,.38s-.17.1-.19.39,0,.27.06.23,0,0,.06.15.14.27.1,0,0-.22-.1-.29-.08-.18,0-.12,0,0,0,0,0-.07,0-.07.09.05.05.12a.15.15,0,0,0,0,.16c0,.1.06.1.06,0s0-.08,0-.06,0-.08,0-.19,0-.1,0-.1.06,0,.09.12.11.16.08,0,0-.13.06-.12a.08.08,0,0,0,.09-.07c0-.07,0-.07,0,0s0,0,0-.22a4.09,4.09,0,0,1-.15-.57m.14,5.65a.56.56,0,0,1-.21-.47,1,1,0,0,0,0-.32c0-.16-.07-.19-.13-.21s-.07,0-.06.1,0,.17.05.26a.46.46,0,0,1,0,.18s0,.08,0,.2.09.17.09.15,0,0,0,.08.05.11.08.11a.21.21,0,0,1,.1,0s0,0,0,0,0,0,.07.06.1.15,0,0a.21.21,0,0,0-.14-.16m.14.38,0,.06s0,0,0,0-.09-.08-.07,0m.14.06c0,.07,0,.12,0,.14s0,.08,0,.16.06.1,0,0-.07-.36-.13-.36,0,0,0,.1M44.2,178s0,0,.08,0,.14-.12,0-.11a.13.13,0,0,0-.1.07m.56-4.1c0,.05,0,.08,0,.06s0,0,0,0,0,.06,0,0a.27.27,0,0,0,0-.13c-.05-.09-.06-.09-.05,0m0,.09c0-.24-.09-.36-.16-.39s0,0,0,.12,0,.16.07.08,0-.08,0,.09a.34.34,0,0,0,0,.23c0,.05,0,0,0-.13m-.34-.58c.07.12.07.12,0,0a.38.38,0,0,0-.09-.17s0,0,0,0a1.12,1.12,0,0,0,.08.18m0,.69a1.07,1.07,0,0,0,0-.27.47.47,0,0,0-.06.24c0,.33,0,.35,0,0m-.71-3.65,0,0a1.36,1.36,0,0,0,0,.24.85.85,0,0,0,.1.34s0,.08.06.14v-.14a2.58,2.58,0,0,0-.12-.61M43.08,164a1.11,1.11,0,0,0,.14.4c0,.05.17.36.3.7.2.51.23.6.23.54s0,0,.06,0,0,0-.05-.11a1.19,1.19,0,0,1-.13-.23c-.06-.13-.08-.29,0-.28s0-.06-.05-.17-.29-.56-.31-.62a.87.87,0,0,0-.12-.25c-.07-.13-.09-.16-.06-.08s0,.11,0,.11m.55,13.81s0,0,0,0,0,0,0,0,0,0,0,0m-.32-.78c.06-.06,0-.1,0-.09s0,0,0,.07,0,0,0,0m-.17,0a.35.35,0,0,0,0-.16c0-.15,0-.17-.07-.1s0,.27,0,.26m0,1,.22,0c.15,0,.47,0,.48-.05s0-.06-.1-.07a.12.12,0,0,1-.12-.1c0-.07,0-.09-.18,0s-.2,0-.23,0a.16.16,0,0,0-.27,0c0,.11,0,.21.2.22m-.74-1.75s0-.06,0-.06,0,0,0,.07,0,.06,0,.06l0-.07m0,.6s0,0,0,0a.16.16,0,0,0,0-.1s0,0,0,0a.16.16,0,0,0,0,.1m.13-.63a.91.91,0,0,0,0,.25c0,.1,0,.28,0,.4,0,.28.2.81.29.77s.08-.09.15-.32a.61.61,0,0,0,0-.53.69.69,0,0,1,0-.34.28.28,0,0,0,0-.2,2,2,0,0,1-.1-.21.23.23,0,0,0-.08-.1s-.1-.14-.17-.33a.69.69,0,0,0-.32-.34.22.22,0,0,1-.13,0s0,0,0,.05a3.15,3.15,0,0,1,.27.47,1.73,1.73,0,0,1,.13.46m1.39,1.75s0,0,0,.06,0,.06,0,.06,0,0,0-.07,0-.06,0,0m.32-1.36s0-.1.07-.17a1.17,1.17,0,0,0,.11-.28c0-.1.06-.16.1-.18s.11-.15.06-.14a.68.68,0,0,1,0-.23c0-.13,0-.23,0-.24s0,0,0-.06,0-.06,0-.06,0-.05,0-.1,0-.1,0-.11,0,0,0-.07l-.13-.18c-.09-.15-.12-.12-.14.14a1.07,1.07,0,0,1-.06.24s0,.08-.07.17a1.26,1.26,0,0,1-.19.27.43.43,0,0,0-.13.21c0,.08,0,.1-.11.08s-.1,0-.13.08a1.19,1.19,0,0,0,0,.53.49.49,0,0,1,0,.22c0,.15,0,.19.06.17s.06,0,.06,0,0,0,.11,0,.14,0,.14.05,0,.06.07,0a.9.9,0,0,0,.19-.4M44.07,178s0,0,0,0,0,0,0,0-.06,0-.08.09,0,.07,0,0a.2.2,0,0,1,.11-.06.07.07,0,0,0,0-.13m0,.25a.59.59,0,0,1,0,.08c0,.09.08.06.07-.05s0-.06,0,0l-.06,0m.67-.37a1,1,0,0,0-.27.35c0,.12,0,.11.13-.1a.6.6,0,0,1,.16-.18.32.32,0,0,0,.06-.08c0-.06,0-.06-.08,0m.29-2c-.05.08-.21.11-.25,0s-.18.2-.21.34a.71.71,0,0,1,0,.17,1.44,1.44,0,0,0-.13.57.63.63,0,0,1,0,.27c-.05.15-.05.19,0,.16a1,1,0,0,0,.12-.33.72.72,0,0,1,.1-.28s0,0,0,.08a.84.84,0,0,0,0,.19c0,.1,0,.11.05.06s.1-.1,0,0-.05.17,0,.16a.69.69,0,0,0,.05-.29v-.25a1.21,1.21,0,0,0,0-.19l.12-.15c.09-.12.1-.15.06-.15a.53.53,0,0,0-.13.11c-.07.1-.08.09-.1,0a.5.5,0,0,1,0-.21c0-.09.06-.1.19-.1a.22.22,0,0,0,.23-.12c.08-.15.08-.21,0-.08m0,2.43s0,0-.07.07,0,.07,0,0,.06,0,.07-.07a.18.18,0,0,0,0-.05m0-1.51s0-.05,0-.05a.08.08,0,0,0-.05.07,0,0,0,0,0,0,0,.13.13,0,0,0,0-.07m-.21-2.45s0,0-.06,0a.39.39,0,0,0,0,.21q0,.1,0,0a.1.1,0,0,1,.06-.1s.06,0,.09.12.1.24.16.23,0,0,0-.14,0-.12,0-.09,0,0,0,0a2.47,2.47,0,0,0-.17-.54.36.36,0,0,0,0,.16c0,.17-.06.2-.08.11m.36,3.17a.66.66,0,0,0,0,.11s0,0,0,0a.24.24,0,0,0,0-.11s0,0,0,0m-.06-.8s0,0,0,0h.09s.05,0,.06-.06,0-.07-.09-.06-.11,0-.1.08m.06-.52a3.23,3.23,0,0,0,.14-.47s0,0,0,.06,0,0,0,0,0-.1,0,0-.09.48-.08.47m.24-.13s0,0,0,0,0,0,0,0,0,0,0,0M47,177s0,.05,0,0a.06.06,0,0,0,0-.06s0,0,0,0m2.15-2a23.3,23.3,0,1,1-23.3-23.3A23.31,23.31,0,0,1,49.1,175m-8.5-7.63s0,0,0,.07,0,.08.07.08,0,0,0-.07,0-.08-.08-.08m-.62-4.5a1.45,1.45,0,0,0,0,.23,1,1,0,0,1-.15.66s0,0,0,.06.1,0,.13-.1.07-.13.09-.12.06-.31,0-.52a2.2,2.2,0,0,0-.07-.21m-2.9,1.89s.1,0,.12,0,0,0-.08,0-.08,0,0,0m.15-6.39c.08.08.08.07,0,0s-.19-.22-.15-.14a.79.79,0,0,0,.11.14m-.43,6.25-.12.06c-.13.06-.17.12-.13.26s.09.13.1,0,.05-.14.1-.14.09,0,.08-.07l0-.07m.52,1.14c-.06,0-.1,0-.1.06s0,.08.1.09a.08.08,0,0,0,.09-.07.08.08,0,0,0-.09-.08m-1.79-7.18c0,.08,0,.1,0,.1s0,.06.06.1,0,.09.05.08,0-.11,0-.2-.1-.21-.11-.08m1.95-.36s0,0,0,.05,0,.07.06.07,0,0,0,0,0-.07-.06-.07m.17,6.11s0,0,0,.07l.12.09s0,0,0-.08a.3.3,0,0,0-.12-.08m-20.42-8.23c.05-.07,0-.06-.11,0l-.11.06h.08a.23.23,0,0,0,.14-.07M13,165.51a.36.36,0,0,0,.3-.11c.09-.09.11-.23,0-.14a.56.56,0,0,1-.22.07c-.28.06-.35.18-.11.18m-1.67-5-.17.17-.18.17h.07a.32.32,0,0,0,.12-.08l.1-.08s0,0,0,.07,0,0,.06,0a1.44,1.44,0,0,1,.22-.15c.16-.07.21-.19.06-.13s-.12,0,0,0,0,0-.33.11l-.23.13.18-.08.18-.07m.39,3.51c-.08.09-.09.11,0,.11a.18.18,0,0,0,.1-.11l0-.1-.11.1m-.19-.5c-.05.09-.1.33-.06.29a.62.62,0,0,0,.07-.2c0-.09,0-.13,0-.09m.44-.61-.08.05a.18.18,0,0,0-.1.09.52.52,0,0,0-.05.36.42.42,0,0,1,0,.25c-.06.13-.06.15,0,.05a1.52,1.52,0,0,0,.18-.47c0-.18.08-.33.08-.33m-.32.14c-.1.12-.12.15-.1.18s0,.07,0,.1-.06.09-.05.11.05,0,.09-.12.11-.22.14-.29,0-.13-.06,0m.25-.84s0,0-.08.11-.08.1-.06.1a2.12,2.12,0,0,0,.33-.37c.05-.09,0-.05-.12.06s-.08.1-.07.1m-.5-1s0,0,0,0-.06.11-.2.22l-.17.13.14,0a1,1,0,0,0,.23-.09l.23-.19a1.43,1.43,0,0,1,.2-.13.26.26,0,0,0,.1-.07c.08-.1,0-.06-.19.07s-.25.13-.3,0m.17.58a.51.51,0,0,0-.21.12c-.13.13-.13.13.12,0s.19-.11.1-.1m1.34-1c0-.07,0-.05-.1,0s-.05.07,0,.09.09,0,.14-.11m-.8,4.18a3.75,3.75,0,0,0-.48,1c0,.13.18-.1.33-.41a1.17,1.17,0,0,1,.32-.46c.23-.22.23-.22.25-.05s0,.16-.07.23a.77.77,0,0,0-.12.17s0,0,.05,0,.08-.06.07.07,0,.1,0,.17c.06-.11.1-.16.16-.26a3.39,3.39,0,0,0,.19-.32s0,0,.05.06.15,0,.12-.18-.12-.21-.14-.07,0,.07,0,.07,0,0,0-.07-.49-.07-.66.1m0-.41c.08-.05.14-.07.11,0s0,.16.21.16h.16a1.52,1.52,0,0,0,.06-.2c0-.11.05-.19,0-.17s-.06,0-.07-.05-.13-.17-.49.09l-.39.28c-.07.08.24,0,.39-.08m.44-.67c.05-.09,0-.15,0-.1s-.1.17-.05.16a.1.1,0,0,0,.08-.06m-.22,1.9c-.16.06-.22.18-.1.18a1.6,1.6,0,0,0,.59-.31c.08-.09,0-.08-.49.13m4.4-3s.09,0,.12-.07.06-.08-.08,0-.1.07,0,.07m-1.54.69s.06-.05.09-.11,0-.15-.06-.07-.07.18,0,.18m1-.75s0,0,.05-.07,0-.08,0-.08,0,0-.05.08,0,.07,0,.07m.56-6.33s0,0,0,0-.05,0,0,0,0,0,.06,0m-2.87,3.29s0-.06,0-.06,0,0-.05.07a.21.21,0,0,0,0,.06l.06-.07m.92,26.18a.16.16,0,0,0,0-.12s-.12.09-.1.16,0,0,.07,0m1.41-29.18c.12,0,.21-.1.16-.15s-.05,0-.07,0a.27.27,0,0,1-.11.1c-.07,0-.07,0,0,0m-1.61,6.73a.21.21,0,0,0-.12.08c-.1.13-.07.13.06,0s.11-.1.06-.1m-.11-3.31s0,0,.05,0-.06-.14-.1-.06,0,.05,0,.05a.06.06,0,0,1,0,0m.85-1.35s-.06,0-.05,0,0,0,.07,0,0,0,0,0m1.06-.38a.31.31,0,0,0,.16-.06.29.29,0,0,1,.1-.08s0,0,0,0a.26.26,0,0,1-.15,0s0,0,0,0a.5.5,0,0,1-.09.13c0,.06,0,.07.06,0m.76.2.1-.06c0-.05-.08,0-.13,0s0,.05,0,0m-.43,1.1a.49.49,0,0,1,.13-.06c.05,0,.05,0,0-.06s-.12-.07-.17.05,0,.1,0,.07m11.7.28s0,0,0,.08,0,0,.05,0a.1.1,0,0,0,0-.08s0,0-.05,0m0-1.6s-.06,0-.06.07,0,.07,0,.07.05,0,.06-.07,0-.07,0-.07M30.9,178.1l.25,0c.06,0,.09,0,.06-.06s0-.16.11-.3.13-.26.05-.3-.42,0-.48.06a1.61,1.61,0,0,0-.1.38c-.05.28,0,.3.11.26m-2-18s0,0,0,.08,0,.06-.05,0-.08,0-.09.06,0,.1-.06.07-.06,0-.07,0,0,.08.05.08.28-.15.27-.27,0-.09,0-.09M8.16,162.55a.17.17,0,0,0-.09.07c-.06.08,0,.07.06,0s.08-.06,0,0m18-1.63a1,1,0,0,0-.09.14c0,.06.2,0,.23-.1s0-.14-.14,0m16.93,5s0,0,0-.06,0-.07-.05-.07,0,0,0,.06,0,.07,0,.07m-14.88-5.69a.13.13,0,0,0,0,.12s.05,0,0-.06,0-.16-.07-.06m3,19.87a.35.35,0,0,0,0-.19s-.06.13-.07.33,0,.41,0,.48a.41.41,0,0,0,.06.22c.06.09.07.06.09-.24a2,2,0,0,0,0-.4.35.35,0,0,1,0-.2m.62-3.78a.41.41,0,0,0,.09.31c.09.09.1.09,0,0a1.07,1.07,0,0,1-.08-.31,1.42,1.42,0,0,0,0-.2,1.47,1.47,0,0,1,0,.21m.09-2.22A.14.14,0,0,0,32,174s0,0-.07,0-.06,0,0,.09,0,0,.06,0m-9.5,1.11c-.05,0-.1,0-.1,0s.05.07.1.13.1.07.1,0a.16.16,0,0,0-.1-.13m0,.35s0,.09,0,.09a.09.09,0,0,0,.08-.09s0-.08,0-.08-.06,0-.08.08m3.7-1.95c-.21-.1-.22-.08-.11.14s.3.15.3,0-.09-.09-.19-.15M35,158.46s0,0,0,.07a.19.19,0,0,0,.07.08s0,0,0-.07l-.06-.08M12.75,189.35a.07.07,0,0,0,0,.06s0,0,0,0,0-.06,0-.06,0,0,0,0m-.4-.91s0,0,0,.05a.32.32,0,0,0,.06.08s0,0,0-.06a.11.11,0,0,0-.06-.07m-1.13-7.06a.35.35,0,0,0,.13.14c.08,0,.08,0,0-.09s-.18-.18-.14-.05m-.64-7.08c-.05.08-.08.31,0,.32s.06,0,.09-.1,0-.32-.06-.22m-1.79-8.09s0-.08,0-.1,0,0,0,0a.26.26,0,0,0,0,.11s0,0,0,0m0,7.42s-.06,0,0,.12.09.11.09,0a.07.07,0,0,0-.06-.09m4.2,16c-.05.06,0,.07,0,.06s.09,0,.09-.06-.06-.07-.13,0m6.15-31s0,0,0,0-.06,0,0,0a.06.06,0,0,0,.08,0m1,37.23s0,0,0,0,.05,0,.06,0,0,0-.05,0M18.13,156.6a.39.39,0,0,0,0,.06s0,0,.06,0,0-.06,0-.06l-.06,0m6-1s.08,0,.08-.06-.1,0-.13,0,0,0,.05,0m18.73,17.89s0,0,0-.06-.07-.14-.05,0a.29.29,0,0,0,.06.11M22.53,158a.12.12,0,0,0,.06-.1c0-.09,0-.08-.08,0s0,.1,0,.07m65.32,17c0,28-22.22,48.59-50.39,48.59H8.3V204.17H37.46a29.16,29.16,0,0,0,0-58.31H8.3V126.42H37.46c28.17,0,50.39,20.59,50.39,48.59"/></svg>